<svg xmlns="http://www.w3.org/2000/svg" xmlns:xlink="http://www.w3.org/1999/xlink" width="100" zoomAndPan="magnify" viewBox="0 0 75 74.999997" height="100" preserveAspectRatio="xMidYMid meet" version="1.0"><defs><clipPath id="id1"><path d="M 9.523438 8.609375 L 64.273438 8.609375 L 64.273438 67.859375 L 9.523438 67.859375 Z M 9.523438 8.609375 " clip-rule="nonzero"/></clipPath></defs><rect x="-7.5" width="90" fill="#ffffff" y="-7.5" height="89.999996" fill-opacity="1"/><rect x="-7.5" width="90" fill="#ffffff" y="-7.5" height="89.999996" fill-opacity="1"/><rect x="-7.5" width="90" fill="#ffffff" y="-7.5" height="89.999996" fill-opacity="1"/><path fill="#ffffff" d="M 55.488281 16.15625 C 56.617188 16.15625 57.535156 17.085938 57.535156 18.222656 C 57.535156 19.363281 56.617188 20.289062 55.488281 20.289062 C 54.359375 20.289062 53.441406 19.363281 53.441406 18.222656 C 53.441406 17.085938 54.359375 16.15625 55.488281 16.15625 Z M 55.488281 21.519531 C 57.289062 21.519531 58.753906 20.042969 58.753906 18.222656 C 58.753906 16.40625 57.289062 14.925781 55.488281 14.925781 C 53.683594 14.925781 52.222656 16.40625 52.222656 18.222656 C 52.222656 20.042969 53.683594 21.519531 55.488281 21.519531 " fill-opacity="1" fill-rule="nonzero"/><g clip-path="url(#id1)"><path fill="#ffffff" d="M 62.953125 64.183594 L 62.953125 66.628906 L 14.46875 66.628906 L 14.46875 64.183594 Z M 42.609375 36.558594 C 44.40625 35.304688 45.585938 33.21875 45.585938 30.851562 C 45.585938 28.488281 44.40625 26.398438 42.609375 25.144531 L 50.664062 25.144531 L 51.09375 25.902344 L 51.480469 25.902344 L 51.480469 36.558594 Z M 33.054688 30.851562 C 33.054688 27.707031 35.59375 25.144531 38.710938 25.144531 C 41.828125 25.144531 44.367188 27.707031 44.367188 30.851562 C 44.367188 34 41.828125 36.558594 38.710938 36.558594 C 35.59375 36.558594 33.054688 34 33.054688 30.851562 Z M 31.84375 30.992188 L 24.570312 22.355469 C 24.992188 22.4375 25.421875 22.480469 25.867188 22.480469 C 29.433594 22.480469 32.371094 19.726562 32.707031 16.214844 L 37.652344 24.003906 C 34.367188 24.519531 31.835938 27.390625 31.835938 30.851562 C 31.835938 30.898438 31.84375 30.945312 31.84375 30.992188 Z M 21.597656 32.257812 L 14.214844 32.257812 L 19.40625 17.886719 C 19.917969 19.324219 20.882812 20.539062 22.132812 21.359375 L 24.527344 24.207031 Z M 24.964844 33.488281 L 24.964844 36.671875 L 10.753906 36.671875 L 10.753906 33.488281 Z M 20.929688 40.980469 L 14.785156 40.980469 L 14.785156 37.902344 L 20.929688 37.902344 Z M 25.867188 9.839844 C 28.984375 9.839844 31.519531 12.398438 31.519531 15.542969 C 31.519531 18.691406 28.984375 21.25 25.867188 21.25 C 22.75 21.25 20.210938 18.691406 20.210938 15.542969 C 20.210938 12.398438 22.75 9.839844 25.867188 9.839844 Z M 58.273438 25.902344 L 58.273438 62.953125 L 52.699219 62.953125 L 52.699219 25.902344 Z M 48.113281 18.222656 L 51.800781 11.78125 L 59.171875 11.78125 L 62.859375 18.222656 L 59.171875 24.671875 L 51.800781 24.671875 Z M 59.492188 25.902344 L 59.878906 25.902344 L 64.265625 18.222656 L 59.878906 10.550781 L 51.09375 10.550781 L 46.707031 18.222656 L 49.960938 23.914062 L 39.042969 23.914062 L 32.441406 13.519531 C 31.578125 10.679688 28.960938 8.609375 25.867188 8.609375 C 22.121094 8.609375 19.070312 11.652344 19 15.417969 L 12.914062 32.257812 L 9.535156 32.257812 L 9.535156 37.902344 L 13.566406 37.902344 L 13.566406 41.429688 L 9.789062 48.03125 L 13.648438 54.777344 L 14.703125 54.160156 L 11.195312 48.03125 L 14.527344 42.210938 L 15.972656 42.210938 L 12.640625 48.03125 L 16.5 54.777344 L 17.554688 54.160156 L 14.046875 48.03125 L 17.378906 42.210938 L 18.339844 42.210938 L 21.671875 48.03125 L 18.164062 54.160156 L 19.21875 54.777344 L 23.078125 48.03125 L 19.746094 42.210938 L 21.1875 42.210938 L 24.519531 48.03125 L 21.011719 54.160156 L 22.066406 54.777344 L 25.925781 48.03125 L 22.148438 41.429688 L 22.148438 37.902344 L 26.183594 37.902344 L 26.183594 32.257812 L 22.894531 32.257812 L 25.433594 25.28125 L 32.363281 33.503906 C 33.398438 36.015625 35.851562 37.789062 38.710938 37.789062 L 51.480469 37.789062 L 51.480469 62.953125 L 13.25 62.953125 L 13.25 67.859375 L 64.171875 67.859375 L 64.171875 62.953125 L 59.492188 62.953125 L 59.492188 25.902344 " fill-opacity="1" fill-rule="nonzero"/></g><path fill="#ffffff" d="M 38.710938 32.570312 C 37.773438 32.570312 37.011719 31.800781 37.011719 30.851562 C 37.011719 29.90625 37.773438 29.132812 38.710938 29.132812 C 39.652344 29.132812 40.414062 29.90625 40.414062 30.851562 C 40.414062 31.800781 39.652344 32.570312 38.710938 32.570312 Z M 38.710938 27.902344 C 37.101562 27.902344 35.792969 29.226562 35.792969 30.851562 C 35.792969 32.476562 37.101562 33.796875 38.710938 33.796875 C 40.324219 33.796875 41.632812 32.476562 41.632812 30.851562 C 41.632812 29.226562 40.324219 27.902344 38.710938 27.902344 " fill-opacity="1" fill-rule="nonzero"/><path fill="#ffffff" d="M 25.867188 13.828125 C 26.804688 13.828125 27.566406 14.597656 27.566406 15.542969 C 27.566406 16.492188 26.804688 17.261719 25.867188 17.261719 C 24.929688 17.261719 24.164062 16.492188 24.164062 15.542969 C 24.164062 14.597656 24.929688 13.828125 25.867188 13.828125 Z M 25.867188 18.492188 C 27.476562 18.492188 28.785156 17.167969 28.785156 15.542969 C 28.785156 13.917969 27.476562 12.597656 25.867188 12.597656 C 24.257812 12.597656 22.945312 13.917969 22.945312 15.542969 C 22.945312 17.167969 24.257812 18.492188 25.867188 18.492188 " fill-opacity="1" fill-rule="nonzero"/></svg>