<svg xmlns="http://www.w3.org/2000/svg" xmlns:xlink="http://www.w3.org/1999/xlink" width="100" zoomAndPan="magnify" viewBox="0 0 75 74.999997" height="100" preserveAspectRatio="xMidYMid meet" version="1.0"><defs><clipPath id="id1"><path d="M 7.5 8.585938 L 67.5 8.585938 L 67.5 66.335938 L 7.5 66.335938 Z M 7.5 8.585938 " clip-rule="nonzero"/></clipPath></defs><rect x="-7.5" width="90" fill="#ffffff" y="-7.5" height="89.999996" fill-opacity="1"/><rect x="-7.5" width="90" fill="#ffffff" y="-7.5" height="89.999996" fill-opacity="1"/><rect x="-7.5" width="90" fill="#ffffff" y="-7.5" height="89.999996" fill-opacity="1"/><rect x="-7.5" width="90" fill="#ffffff" y="-7.5" height="89.999996" fill-opacity="1"/><path fill="#ffffff" d="M 23.125 43.386719 C 23.125 45.835938 25.121094 47.820312 27.570312 47.820312 C 30.023438 47.820312 32.015625 45.828125 32.015625 43.386719 C 32.015625 40.9375 30.023438 38.945312 27.570312 38.945312 C 25.121094 38.953125 23.125 40.9375 23.125 43.386719 Z M 27.570312 40.25 C 29.300781 40.25 30.710938 41.660156 30.710938 43.386719 C 30.710938 45.113281 29.300781 46.523438 27.570312 46.523438 C 25.84375 46.523438 24.433594 45.113281 24.433594 43.386719 C 24.433594 41.660156 25.835938 40.25 27.570312 40.25 Z M 27.570312 40.25 " fill-opacity="1" fill-rule="nonzero"/><g clip-path="url(#id1)"><path fill="#ffffff" d="M 67.304688 35.824219 L 63.152344 30.511719 C 63.671875 29.875 63.980469 29.0625 63.980469 28.183594 C 63.980469 26.277344 62.527344 24.703125 60.667969 24.507812 L 60.667969 16.121094 C 60.667969 13.464844 58.503906 11.308594 55.84375 11.308594 C 55.019531 11.308594 54.238281 11.515625 53.550781 11.882812 L 21.402344 11.882812 C 20.027344 9.898438 17.730469 8.585938 15.132812 8.585938 C 13.097656 8.585938 11.183594 9.378906 9.742188 10.816406 C 8.304688 12.253906 7.511719 14.164062 7.511719 16.199219 C 7.511719 18.230469 8.304688 20.140625 9.742188 21.578125 C 10.582031 22.414062 11.582031 23.035156 12.667969 23.402344 L 18.96875 37.171875 C 17.699219 38.921875 16.945312 41.070312 16.945312 43.390625 C 16.945312 45.902344 17.8125 48.28125 19.410156 50.1875 L 16.320312 57.601562 L 13.644531 57.601562 C 13.417969 57.601562 13.210938 57.71875 13.089844 57.90625 L 11.339844 60.726562 L 9.429688 60.726562 C 9.074219 60.726562 8.777344 61.019531 8.777344 61.378906 L 8.777344 65.683594 C 8.777344 66.042969 9.074219 66.335938 9.429688 66.335938 L 45.695312 66.335938 C 46.054688 66.335938 46.347656 66.042969 46.347656 65.683594 L 46.347656 61.378906 C 46.347656 61.019531 46.054688 60.726562 45.695312 60.726562 L 43.785156 60.726562 L 42.046875 57.902344 C 41.925781 57.710938 41.71875 57.597656 41.492188 57.597656 L 38.816406 57.597656 L 35.722656 50.175781 C 37.261719 48.335938 38.191406 45.96875 38.191406 43.386719 C 38.191406 37.847656 33.917969 33.289062 28.492188 32.820312 L 22.859375 20.511719 L 51.023438 20.511719 L 51.023438 24.5 C 49.164062 24.695312 47.710938 26.273438 47.710938 28.179688 C 47.710938 29.0625 48.023438 29.871094 48.539062 30.503906 L 44.386719 35.816406 C 44.203125 36.054688 44.203125 36.382812 44.386719 36.621094 L 49.488281 43.144531 C 49.613281 43.304688 49.804688 43.390625 50 43.390625 C 50.140625 43.390625 50.285156 43.347656 50.398438 43.253906 C 50.683594 43.035156 50.734375 42.625 50.511719 42.339844 L 45.722656 36.214844 L 49.519531 31.355469 C 50.078125 31.683594 50.71875 31.875 51.410156 31.875 L 60.269531 31.875 C 60.957031 31.875 61.601562 31.683594 62.160156 31.355469 L 65.957031 36.214844 L 61.167969 42.339844 C 60.949219 42.625 60.996094 43.035156 61.28125 43.253906 C 61.402344 43.347656 61.539062 43.390625 61.679688 43.390625 C 61.875 43.390625 62.066406 43.304688 62.191406 43.144531 L 67.292969 36.621094 C 67.488281 36.386719 67.488281 36.058594 67.304688 35.824219 Z M 55.851562 12.613281 C 57.792969 12.613281 59.371094 14.1875 59.371094 16.128906 L 59.371094 24.484375 L 52.335938 24.484375 L 52.335938 16.121094 C 52.332031 14.1875 53.910156 12.613281 55.851562 12.613281 Z M 8.824219 16.203125 C 8.824219 14.515625 9.484375 12.933594 10.675781 11.746094 C 11.863281 10.554688 13.449219 9.898438 15.136719 9.898438 C 18.617188 9.898438 21.449219 12.726562 21.449219 16.203125 C 21.449219 19.679688 18.617188 22.507812 15.136719 22.507812 C 13.449219 22.507812 11.863281 21.851562 10.675781 20.660156 C 9.476562 19.464844 8.824219 17.882812 8.824219 16.203125 Z M 42.878906 61.71875 C 43 61.910156 43.207031 62.023438 43.433594 62.023438 L 45.050781 62.023438 L 45.050781 65.027344 L 10.089844 65.027344 L 10.089844 62.023438 L 11.707031 62.023438 C 11.933594 62.023438 12.140625 61.910156 12.261719 61.71875 L 14.015625 58.902344 L 41.128906 58.902344 Z M 17.738281 57.597656 L 20.398438 51.210938 C 22.363281 53.003906 24.890625 53.992188 27.570312 53.992188 C 30.335938 53.992188 32.847656 52.9375 34.738281 51.203125 L 37.40625 57.597656 Z M 36.882812 43.386719 C 36.882812 48.519531 32.703125 52.6875 27.566406 52.6875 C 25.078125 52.6875 22.738281 51.71875 20.976562 49.960938 C 19.21875 48.207031 18.246094 45.871094 18.246094 43.378906 C 18.246094 38.246094 22.425781 34.074219 27.558594 34.074219 C 32.703125 34.085938 36.882812 38.257812 36.882812 43.386719 Z M 27.046875 32.792969 C 24.242188 32.929688 21.722656 34.160156 19.898438 36.058594 L 14.269531 23.753906 C 14.554688 23.789062 14.84375 23.808594 15.132812 23.808594 C 17.726562 23.808594 20.027344 22.503906 21.402344 20.511719 L 21.425781 20.511719 Z M 22.265625 19.210938 L 22.195312 19.054688 C 22.554688 18.171875 22.75 17.214844 22.75 16.203125 C 22.75 15.136719 22.523438 14.117188 22.125 13.195312 L 52.03125 13.195312 C 51.398438 14.007812 51.023438 15.023438 51.023438 16.128906 L 51.023438 19.210938 Z M 51.421875 30.578125 C 50.097656 30.578125 49.019531 29.507812 49.019531 28.179688 C 49.019531 26.855469 50.09375 25.777344 51.421875 25.777344 L 60.28125 25.777344 C 61.601562 25.777344 62.683594 26.851562 62.683594 28.179688 C 62.683594 29.5 61.609375 30.578125 60.28125 30.578125 Z M 51.421875 30.578125 " fill-opacity="1" fill-rule="nonzero"/></g><path fill="#ffffff" d="M 16.363281 16.203125 C 16.363281 15.527344 15.808594 14.972656 15.132812 14.972656 C 14.453125 14.972656 13.898438 15.527344 13.898438 16.203125 C 13.898438 16.878906 14.453125 17.433594 15.132812 17.433594 C 15.8125 17.433594 16.363281 16.878906 16.363281 16.203125 Z M 16.363281 16.203125 " fill-opacity="1" fill-rule="nonzero"/></svg>