<svg xmlns="http://www.w3.org/2000/svg" xmlns:xlink="http://www.w3.org/1999/xlink" width="100" zoomAndPan="magnify" viewBox="0 0 75 74.999997" height="100" preserveAspectRatio="xMidYMid meet" version="1.0"><defs><clipPath id="id1"><path d="M 11 7.5 L 64.886719 7.5 L 64.886719 66.75 L 11 66.75 Z M 11 7.5 " clip-rule="nonzero"/></clipPath></defs><rect x="-7.5" width="90" fill="#ffffff" y="-7.5" height="89.999996" fill-opacity="1"/><rect x="-7.5" width="90" fill="#ffffff" y="-7.5" height="89.999996" fill-opacity="1"/><rect x="-7.5" width="90" fill="#ffffff" y="-7.5" height="89.999996" fill-opacity="1"/><g clip-path="url(#id1)"><path fill="#ffffff" d="M 63.6875 65.578125 L 22.105469 65.578125 L 22.105469 62.804688 L 63.6875 62.804688 Z M 30.101562 53.648438 L 32.957031 57.417969 C 33.84375 58.585938 35.1875 59.253906 36.644531 59.253906 C 37.667969 59.253906 38.636719 58.921875 39.453125 58.292969 L 42.257812 56.132812 C 43.242188 55.378906 43.875 54.28125 44.039062 53.042969 C 44.207031 51.804688 43.882812 50.578125 43.132812 49.585938 L 41.105469 46.910156 C 41.699219 46.839844 42.296875 46.796875 42.898438 46.796875 C 51.171875 46.796875 57.929688 53.386719 58.324219 61.632812 L 27.460938 61.632812 C 27.597656 58.753906 28.5 56.023438 30.101562 53.648438 Z M 19.285156 37.4375 C 18.125 35.898438 18.417969 33.699219 19.941406 32.527344 L 22.75 30.367188 C 23.359375 29.898438 24.085938 29.648438 24.851562 29.648438 C 25.945312 29.648438 26.953125 30.148438 27.613281 31.023438 L 39.769531 47.078125 L 39.777344 47.113281 C 39.785156 47.113281 39.789062 47.113281 39.792969 47.113281 L 42.207031 50.296875 C 42.769531 51.039062 43.011719 51.960938 42.890625 52.886719 C 42.765625 53.8125 42.292969 54.632812 41.554688 55.203125 L 38.746094 57.363281 C 37.265625 58.503906 35.007812 58.191406 33.878906 56.707031 Z M 18.25 39.808594 C 17.285156 41.210938 15.363281 41.5625 13.976562 40.589844 C 12.585938 39.617188 12.234375 37.6875 13.199219 36.285156 L 29.992188 11.820312 C 30.460938 11.140625 31.160156 10.683594 31.96875 10.535156 C 32.78125 10.386719 33.589844 10.566406 34.261719 11.035156 C 34.9375 11.507812 35.390625 12.210938 35.539062 13.027344 C 35.683594 13.839844 35.503906 14.660156 35.039062 15.34375 L 25.933594 28.605469 C 25.582031 28.523438 25.222656 28.480469 24.851562 28.480469 C 23.828125 28.480469 22.859375 28.808594 22.042969 29.4375 L 19.234375 31.597656 C 17.203125 33.160156 16.816406 36.097656 18.363281 38.144531 L 18.902344 38.855469 Z M 31.976562 8.671875 L 42.742188 8.671875 C 44.558594 8.671875 46.035156 10.160156 46.035156 11.996094 C 46.035156 13.828125 44.558594 15.320312 42.742188 15.320312 L 36.375 15.320312 C 36.722656 14.539062 36.835938 13.675781 36.679688 12.816406 C 36.476562 11.695312 35.855469 10.722656 34.925781 10.074219 C 33.996094 9.421875 32.867188 9.179688 31.757812 9.382812 C 30.648438 9.585938 29.679688 10.214844 29.039062 11.152344 L 28.714844 11.625 C 28.898438 9.96875 30.28125 8.671875 31.976562 8.671875 Z M 46.917969 10.484375 L 48.71875 10.484375 L 48.71875 13.507812 L 46.917969 13.507812 C 47.089844 13.03125 47.199219 12.527344 47.199219 11.996094 C 47.199219 11.460938 47.089844 10.960938 46.917969 10.484375 Z M 49.882812 9.054688 L 52.386719 9.054688 L 52.386719 14.9375 L 49.882812 14.9375 Z M 53.546875 9.054688 L 54.855469 9.054688 L 57.289062 11.996094 L 54.855469 14.9375 L 53.546875 14.9375 Z M 59.488281 61.632812 C 59.089844 52.742188 51.8125 45.625 42.898438 45.625 C 42.027344 45.625 41.15625 45.714844 40.300781 45.847656 L 28.539062 30.316406 C 28.128906 29.773438 27.613281 29.355469 27.046875 29.046875 L 35.664062 16.492188 L 42.742188 16.492188 C 44.195312 16.492188 45.480469 15.769531 46.296875 14.679688 L 48.71875 14.679688 L 48.71875 16.109375 L 55.402344 16.109375 L 58.316406 12.582031 L 64.265625 12.582031 L 64.265625 11.410156 L 58.316406 11.410156 L 55.402344 7.882812 L 48.71875 7.882812 L 48.71875 9.3125 L 46.296875 9.3125 C 45.484375 8.21875 44.199219 7.5 42.742188 7.5 L 31.976562 7.5 C 29.515625 7.5 27.515625 9.515625 27.515625 11.996094 C 27.515625 12.378906 27.578125 12.757812 27.675781 13.136719 L 12.246094 35.617188 C 10.917969 37.550781 11.394531 40.214844 13.316406 41.550781 C 14.046875 42.066406 14.886719 42.308594 15.71875 42.308594 C 17.058594 42.308594 18.382812 41.667969 19.203125 40.472656 L 19.640625 39.832031 L 29.363281 52.667969 C 27.492188 55.3125 26.441406 58.386719 26.300781 61.632812 L 20.941406 61.632812 L 20.941406 66.75 L 64.847656 66.75 L 64.847656 61.632812 L 59.488281 61.632812 " fill-opacity="1" fill-rule="nonzero"/></g></svg>