<svg xmlns="http://www.w3.org/2000/svg" xmlns:xlink="http://www.w3.org/1999/xlink" width="100" zoomAndPan="magnify" viewBox="0 0 75 74.999997" height="100" preserveAspectRatio="xMidYMid meet" version="1.0"><defs><clipPath id="id1"><path d="M 12.300781 5.972656 L 64.050781 5.972656 L 64.050781 67.472656 L 12.300781 67.472656 Z M 12.300781 5.972656 " clip-rule="nonzero"/></clipPath></defs><rect x="-7.5" width="90" fill="#ffffff" y="-7.5" height="89.999996" fill-opacity="1"/><rect x="-7.5" width="90" fill="#ffffff" y="-7.5" height="89.999996" fill-opacity="1"/><rect x="-7.5" width="90" fill="#ffffff" y="-7.5" height="89.999996" fill-opacity="1"/><path fill="#ffffff" d="M 29.710938 41.792969 C 29.710938 44.300781 31.753906 46.335938 34.261719 46.335938 C 36.773438 46.335938 38.820312 44.300781 38.820312 41.792969 C 38.820312 39.289062 36.777344 37.25 34.261719 37.25 C 31.757812 37.25 29.710938 39.289062 29.710938 41.792969 Z M 37.5 41.792969 C 37.5 43.574219 36.050781 45.019531 34.269531 45.019531 C 32.484375 45.019531 31.039062 43.574219 31.039062 41.792969 C 31.039062 40.015625 32.484375 38.570312 34.269531 38.570312 C 36.050781 38.570312 37.5 40.019531 37.5 41.792969 Z M 37.5 41.792969 " fill-opacity="1" fill-rule="nonzero"/><g clip-path="url(#id1)"><path fill="#ffffff" d="M 64.003906 18.675781 L 62.484375 14.699219 C 62.695312 14.125 62.8125 13.515625 62.8125 12.875 C 62.8125 9.917969 60.402344 7.511719 57.441406 7.511719 C 55.980469 7.511719 54.65625 8.097656 53.6875 9.042969 L 27.851562 9.042969 C 26.617188 7.199219 24.503906 5.980469 22.117188 5.980469 C 18.3125 5.980469 15.214844 9.074219 15.214844 12.875 C 15.214844 15.59375 16.804688 17.953125 19.109375 19.074219 L 25.753906 35.664062 C 24.503906 37.390625 23.765625 39.511719 23.765625 41.792969 C 23.765625 43.472656 24.164062 45.0625 24.875 46.472656 L 18.5 50.160156 C 18.292969 50.277344 18.171875 50.492188 18.171875 50.734375 L 18.171875 55.980469 L 15.3125 55.980469 C 13.65625 55.980469 12.300781 57.328125 12.300781 58.988281 L 12.300781 64.453125 C 12.300781 66.109375 13.648438 67.460938 15.3125 67.460938 L 53.550781 67.460938 C 55.210938 67.460938 56.566406 66.113281 56.566406 64.453125 L 56.566406 58.988281 C 56.566406 57.332031 55.21875 55.980469 53.550781 55.980469 L 50.367188 55.980469 L 50.367188 50.734375 C 50.367188 50.5 50.246094 50.285156 50.039062 50.160156 L 43.664062 46.472656 C 44.367188 45.0625 44.773438 43.472656 44.773438 41.792969 C 44.773438 36.261719 40.457031 31.710938 35.003906 31.332031 L 29.136719 16.695312 L 53.6875 16.695312 C 54.199219 17.195312 54.808594 17.59375 55.480469 17.855469 L 56.835938 21.398438 C 56.867188 21.480469 56.914062 21.550781 56.972656 21.613281 L 59.816406 24.625 C 59.945312 24.757812 60.121094 24.828125 60.296875 24.828125 C 60.378906 24.828125 60.453125 24.816406 60.53125 24.785156 L 61.394531 24.460938 L 62.335938 26.925781 C 62.4375 27.1875 62.6875 27.351562 62.953125 27.351562 C 63.03125 27.351562 63.113281 27.339844 63.1875 27.308594 C 63.527344 27.179688 63.699219 26.800781 63.570312 26.457031 L 62.625 23.992188 L 63.488281 23.664062 C 63.738281 23.570312 63.902344 23.328125 63.914062 23.066406 L 64.03125 18.933594 C 64.050781 18.84375 64.03125 18.757812 64.003906 18.675781 Z M 61.488281 12.875 C 61.488281 15.097656 59.667969 16.914062 57.441406 16.914062 C 55.210938 16.914062 53.394531 15.097656 53.394531 12.875 C 53.394531 10.648438 55.207031 8.832031 57.441406 8.832031 C 59.675781 8.832031 61.488281 10.648438 61.488281 12.875 Z M 16.535156 12.875 C 16.535156 9.800781 19.039062 7.300781 22.117188 7.300781 C 25.195312 7.300781 27.699219 9.800781 27.699219 12.875 C 27.699219 15.945312 25.195312 18.445312 22.117188 18.445312 C 19.039062 18.445312 16.535156 15.945312 16.535156 12.875 Z M 20.75 19.628906 C 21.191406 19.71875 21.648438 19.765625 22.113281 19.765625 C 24.445312 19.765625 26.515625 18.597656 27.765625 16.824219 L 33.578125 31.332031 C 30.890625 31.507812 28.476562 32.695312 26.714844 34.515625 Z M 55.234375 58.984375 L 55.234375 64.445312 C 55.234375 65.375 54.480469 66.132812 53.546875 66.132812 L 15.308594 66.132812 C 14.375 66.132812 13.621094 65.375 13.621094 64.445312 L 13.621094 58.984375 C 13.621094 58.050781 14.375 57.296875 15.308594 57.296875 L 53.546875 57.296875 C 54.480469 57.296875 55.234375 58.058594 55.234375 58.984375 Z M 49.046875 51.113281 L 49.046875 55.980469 L 19.488281 55.980469 L 19.488281 51.113281 L 25.535156 47.621094 C 27.425781 50.429688 30.632812 52.292969 34.273438 52.292969 C 37.910156 52.292969 41.125 50.4375 43.011719 47.621094 Z M 43.453125 41.792969 C 43.453125 46.847656 39.332031 50.960938 34.269531 50.960938 C 29.207031 50.960938 25.085938 46.851562 25.085938 41.792969 C 25.085938 36.742188 29.203125 32.625 34.269531 32.625 C 39.335938 32.625 43.453125 36.742188 43.453125 41.792969 Z M 28.582031 15.292969 C 28.863281 14.535156 29.019531 13.722656 29.019531 12.875 C 29.019531 11.988281 28.851562 11.144531 28.546875 10.367188 L 52.703125 10.367188 C 52.304688 11.117188 52.074219 11.964844 52.074219 12.875 C 52.074219 13.78125 52.304688 14.628906 52.703125 15.378906 L 28.617188 15.378906 Z M 62.617188 22.585938 L 60.484375 23.398438 L 58.03125 20.804688 L 57.042969 18.210938 C 57.175781 18.222656 57.3125 18.230469 57.445312 18.230469 C 59.148438 18.230469 60.660156 17.433594 61.644531 16.199219 L 62.722656 19.019531 Z M 62.617188 22.585938 " fill-opacity="1" fill-rule="nonzero"/></g><path fill="#ffffff" d="M 47.324219 61.054688 L 21.214844 61.054688 C 20.851562 61.054688 20.550781 61.347656 20.550781 61.71875 C 20.550781 62.082031 20.851562 62.378906 21.214844 62.378906 L 47.324219 62.378906 C 47.6875 62.378906 47.988281 62.085938 47.988281 61.71875 C 47.988281 61.355469 47.6875 61.054688 47.324219 61.054688 Z M 47.324219 61.054688 " fill-opacity="1" fill-rule="nonzero"/></svg>