<svg xmlns="http://www.w3.org/2000/svg" xmlns:xlink="http://www.w3.org/1999/xlink" width="100" zoomAndPan="magnify" viewBox="0 0 75 74.999997" height="100" preserveAspectRatio="xMidYMid meet" version="1.0"><defs><clipPath id="id1"><path d="M 6 10 L 67 10 L 67 67.8125 L 6 67.8125 Z M 6 10 " clip-rule="nonzero"/></clipPath></defs><rect x="-7.5" width="90" fill="#ffffff" y="-7.5" height="89.999996" fill-opacity="1"/><rect x="-7.5" width="90" fill="#ffffff" y="-7.5" height="89.999996" fill-opacity="1"/><rect x="-7.5" width="90" fill="#ffffff" y="-7.5" height="89.999996" fill-opacity="1"/><path fill="#ffffff" d="M 60.03125 16.375 C 59.652344 16.695312 59.496094 17.257812 59.664062 17.730469 C 60.347656 19.675781 63.398438 18.261719 62.800781 16.246094 C 62.332031 14.671875 60.089844 14.875 60.03125 16.375 Z M 61.027344 17.765625 C 60.464844 17.765625 60.3125 17.136719 60.671875 17.015625 C 60.9375 16.929688 61.046875 16.621094 60.921875 16.386719 C 60.992188 15.886719 61.761719 15.875 61.945312 16.496094 C 62.117188 17.074219 61.59375 17.765625 61.027344 17.765625 Z M 61.027344 17.765625 " fill-opacity="1" fill-rule="nonzero"/><g clip-path="url(#id1)"><path fill="#ffffff" d="M 64.339844 13.710938 C 61.910156 12.742188 55.929688 13.457031 50.445312 13.132812 C 49.21875 13.058594 47.957031 12.992188 46.769531 13.128906 C 43.765625 9.335938 36.089844 10.183594 34.902344 14.859375 C 30.34375 18.242188 25.871094 22.148438 20.429688 27.480469 C 16.816406 28.179688 14.121094 30.339844 13.203125 33.289062 C 12.328125 36.109375 13.050781 39.402344 15.082031 41.945312 C 14.878906 43.582031 14.726562 45.226562 14.605469 46.878906 C 14.535156 46.863281 14.460938 46.871094 14.40625 46.925781 C 14.320312 47.015625 14.320312 47.15625 14.40625 47.242188 L 14.578125 47.410156 C 14.339844 50.96875 14.300781 54.542969 14.464844 58.101562 C 14.445312 58.15625 14.445312 58.210938 14.472656 58.265625 C 14.480469 58.414062 14.480469 58.5625 14.488281 58.707031 C 12.769531 58.871094 10.699219 59.046875 9.023438 60.105469 C 5.617188 62.277344 6.394531 67.695312 10.574219 67.695312 C 10.695312 67.695312 10.820312 67.6875 10.945312 67.679688 C 17.8125 67.15625 33.996094 67.816406 36.90625 66.324219 C 39.601562 64.9375 40.425781 60.789062 34.328125 59.640625 C 32.910156 59.371094 31.542969 59.15625 30.238281 58.988281 C 31.070312 52.746094 31.3125 46.074219 31.105469 42.023438 C 33.269531 39.160156 33.8125 35.214844 32.183594 32.101562 C 34.6875 29.007812 37.285156 25.789062 39.832031 22.640625 C 41.875 23.132812 43.8125 22.71875 45.242188 21.714844 C 45.777344 21.34375 46.234375 20.863281 46.636719 20.324219 C 47.890625 20.546875 48.375 20.519531 56.195312 20.753906 C 56.011719 21.988281 56.617188 23.136719 58.210938 23.578125 C 58.234375 25.398438 57.585938 29.746094 57.984375 31.160156 C 54.546875 33.734375 54.207031 38.492188 55.804688 39.949219 C 55.984375 40.109375 56.265625 40.101562 56.433594 39.917969 C 56.597656 39.738281 56.585938 39.457031 56.402344 39.289062 C 55.246094 38.234375 55.519531 34.242188 58.382812 31.976562 C 59.261719 33.15625 60.871094 32.917969 61.828125 31.859375 C 63.71875 33.703125 64.476562 36.632812 63.648438 39.144531 C 63.570312 39.378906 63.699219 39.628906 63.933594 39.707031 C 63.976562 39.722656 64.023438 39.730469 64.070312 39.730469 C 64.257812 39.730469 64.433594 39.609375 64.492188 39.425781 C 65.441406 36.542969 64.546875 33.179688 62.335938 31.109375 C 63.101562 29.515625 62.980469 25.179688 62.667969 23.953125 C 64.125 23.867188 64.984375 23.136719 64.984375 22.890625 C 65.453125 22.195312 65.472656 21.105469 64.773438 20.1875 C 67.851562 18.503906 67.425781 14.953125 64.339844 13.710938 Z M 17.210938 43.9375 L 16.988281 44.160156 L 15.851562 43.023438 C 15.859375 42.960938 15.863281 42.894531 15.867188 42.832031 C 16.214844 43.175781 16.667969 43.5625 17.210938 43.9375 Z M 21.40625 45.617188 C 21.351562 45.667969 20.859375 46.160156 20.808594 46.210938 L 20.5 45.902344 C 20.414062 45.816406 20.273438 45.816406 20.1875 45.902344 C 20.097656 45.988281 20.097656 46.128906 20.1875 46.21875 L 20.496094 46.527344 L 19.921875 47.097656 L 17.300781 44.472656 L 17.589844 44.1875 C 18.765625 44.917969 20.050781 45.386719 21.40625 45.617188 Z M 24.585938 45.695312 L 24.164062 46.117188 C 24.042969 46.117188 23.941406 46.214844 23.941406 46.339844 L 22.441406 47.84375 L 21.125 46.527344 L 21.714844 45.933594 C 21.789062 45.859375 21.785156 45.753906 21.734375 45.667969 C 22.628906 45.789062 23.605469 45.816406 24.585938 45.695312 Z M 26.578125 45.246094 L 27.296875 45.964844 L 25.699219 47.5625 L 24.523438 46.386719 L 25.101562 45.808594 C 25.15625 45.753906 25.164062 45.679688 25.148438 45.609375 C 25.863281 45.480469 26.191406 45.375 26.578125 45.246094 Z M 30.066406 43.195312 L 29.320312 43.945312 C 29.230469 44.03125 29.230469 44.171875 29.320312 44.257812 C 29.40625 44.34375 29.546875 44.347656 29.632812 44.257812 L 30.25 43.644531 C 30.253906 43.835938 30.25 44.03125 30.25 44.222656 L 28.21875 46.257812 L 27.925781 45.964844 C 28.109375 45.78125 28.328125 45.617188 28.144531 45.433594 C 27.957031 45.25 27.796875 45.46875 27.613281 45.652344 L 27.046875 45.085938 C 28.101562 44.679688 29.128906 44.085938 30.066406 43.195312 Z M 30.171875 43.089844 L 30.09375 43.167969 C 30.09375 43.167969 30.089844 43.171875 30.171875 43.089844 Z M 15.796875 43.597656 L 16.671875 44.472656 L 15.804688 45.34375 C 15.71875 45.429688 15.71875 45.570312 15.804688 45.65625 C 15.894531 45.746094 16.035156 45.742188 16.121094 45.65625 L 16.988281 44.789062 L 17.980469 45.78125 L 15.777344 47.984375 L 15.445312 47.652344 C 15.53125 46.296875 15.648438 44.945312 15.796875 43.597656 Z M 15.460938 48.296875 L 15.410156 48.351562 C 15.410156 48.316406 15.410156 48.28125 15.414062 48.25 Z M 15.253906 55.078125 L 16.347656 56.171875 L 15.320312 57.199219 C 15.292969 56.492188 15.265625 55.785156 15.253906 55.078125 Z M 15.269531 51.914062 L 15.683594 51.5 L 16.671875 52.492188 L 15.25 53.914062 C 15.246094 53.246094 15.257812 52.578125 15.269531 51.914062 Z M 15.277344 51.277344 C 15.296875 50.433594 15.34375 49.59375 15.386719 48.753906 C 15.421875 48.773438 15.457031 48.796875 15.496094 48.796875 C 15.554688 48.796875 15.609375 48.777344 15.652344 48.734375 L 15.777344 48.609375 L 16.859375 49.695312 Z M 38.039062 63.207031 C 38.039062 63.210938 38.039062 63.210938 38.039062 63.207031 C 38.117188 64.226562 37.320312 65.109375 36.5 65.53125 C 35.578125 66.003906 34.503906 66.109375 33.300781 66.191406 C 30.152344 66.398438 12.574219 66.660156 10.875 66.789062 C 7.359375 67.082031 6.734375 62.617188 9.5 60.855469 C 12.898438 58.710938 25.835938 58.929688 34.160156 60.511719 C 35.792969 60.820312 37.902344 61.402344 38.039062 63.207031 Z M 29.363281 58.875 C 24.984375 58.351562 20.082031 58.234375 15.363281 58.625 C 15.351562 58.355469 15.351562 58.082031 15.339844 57.808594 L 16.664062 56.488281 L 16.882812 56.707031 C 16.96875 56.792969 17.109375 56.792969 17.195312 56.707031 C 17.285156 56.621094 17.285156 56.480469 17.195312 56.390625 L 16.976562 56.171875 L 18.164062 54.984375 C 18.253906 54.898438 18.253906 54.757812 18.164062 54.667969 C 18.078125 54.582031 17.9375 54.582031 17.851562 54.667969 L 16.664062 55.859375 L 15.300781 54.496094 L 16.988281 52.804688 L 17.835938 53.652344 C 17.921875 53.738281 18.0625 53.738281 18.148438 53.652344 C 18.234375 53.5625 18.234375 53.421875 18.148438 53.335938 L 17.304688 52.488281 L 18.144531 51.648438 C 18.230469 51.5625 18.230469 51.421875 18.144531 51.335938 C 18.054688 51.246094 17.914062 51.246094 17.828125 51.335938 L 16.988281 52.175781 L 15.996094 51.183594 L 17.175781 50.007812 L 17.546875 50.378906 C 17.632812 50.464844 17.773438 50.46875 17.863281 50.378906 C 17.949219 50.292969 17.949219 50.152344 17.863281 50.066406 L 17.488281 49.691406 L 18.277344 48.90625 C 18.363281 48.820312 18.363281 48.679688 18.277344 48.589844 C 18.1875 48.503906 18.046875 48.503906 17.960938 48.589844 L 17.175781 49.378906 L 16.089844 48.292969 L 18.292969 46.089844 L 19.609375 47.40625 L 19.441406 47.578125 C 19.351562 47.664062 19.351562 47.804688 19.441406 47.890625 C 19.527344 47.976562 19.667969 47.980469 19.753906 47.890625 L 19.921875 47.722656 L 19.972656 47.769531 C 20.058594 47.855469 20.199219 47.859375 20.285156 47.769531 C 20.375 47.683594 20.375 47.542969 20.285156 47.457031 L 20.238281 47.40625 L 20.808594 46.835938 L 22.125 48.152344 L 21.582031 48.695312 C 21.496094 48.78125 21.496094 48.921875 21.582031 49.011719 C 21.671875 49.097656 21.8125 49.097656 21.898438 49.011719 L 22.441406 48.46875 L 23.441406 49.46875 C 23.527344 49.554688 23.667969 49.558594 23.753906 49.46875 C 23.84375 49.382812 23.84375 49.242188 23.753906 49.15625 L 22.753906 48.152344 L 24.210938 46.695312 L 25.394531 47.882812 C 25.328125 47.96875 25.324219 48.089844 25.40625 48.171875 C 25.476562 48.246094 25.585938 48.265625 25.695312 48.183594 L 25.746094 48.234375 C 25.832031 48.320312 25.972656 48.320312 26.0625 48.234375 C 26.148438 48.148438 26.148438 48.007812 26.0625 47.917969 L 26.015625 47.875 L 27.613281 46.277344 L 27.90625 46.570312 L 27.175781 47.296875 C 27.089844 47.386719 27.089844 47.527344 27.175781 47.613281 C 27.261719 47.699219 27.402344 47.699219 27.492188 47.613281 L 28.21875 46.882812 C 28.347656 47.011719 28.480469 47 28.5625 46.914062 C 28.652344 46.828125 28.652344 46.6875 28.5625 46.601562 L 28.535156 46.570312 L 30.253906 44.851562 C 30.265625 49.535156 29.980469 54.238281 29.363281 58.875 Z M 30.304688 41.617188 C 26.769531 46.109375 19.511719 45.894531 15.886719 41.535156 L 15.882812 41.535156 C 13.949219 39.203125 13.246094 36.148438 14.054688 33.554688 C 14.894531 30.847656 17.328125 28.9375 20.730469 28.324219 C 30.378906 26.585938 35.285156 35.273438 30.304688 41.617188 Z M 31.703125 31.28125 C 29.605469 28.265625 25.5625 26.992188 21.914062 27.273438 C 26.65625 22.671875 30.671875 19.167969 34.707031 16.117188 C 34.605469 18.695312 36.285156 21.355469 38.90625 22.367188 C 37.515625 24.085938 34 28.4375 31.703125 31.28125 Z M 39.773438 21.71875 C 39.28125 21.578125 38.835938 21.367188 38.414062 21.121094 L 38.933594 20.601562 L 39.960938 21.628906 C 40.046875 21.714844 40.1875 21.714844 40.277344 21.628906 C 40.363281 21.542969 40.363281 21.402344 40.277344 21.3125 L 39.25 20.285156 L 39.867188 19.667969 L 40.902344 20.707031 L 40.503906 21.105469 C 40.414062 21.195312 40.414062 21.335938 40.503906 21.421875 C 40.589844 21.507812 40.730469 21.507812 40.816406 21.421875 L 41.21875 21.019531 L 42.070312 21.875 C 42.101562 21.902344 42.140625 21.910156 42.179688 21.917969 C 41.390625 22.007812 40.574219 21.949219 39.773438 21.71875 Z M 43.234375 18.375 L 42.289062 19.320312 L 41.253906 18.285156 L 42.199219 17.339844 Z M 44.164062 19.308594 L 43.222656 20.253906 L 42.605469 19.636719 L 43.546875 18.691406 Z M 41.976562 19.632812 L 41.21875 20.390625 L 40.183594 19.355469 L 40.9375 18.597656 Z M 44.734375 20.984375 C 44.023438 21.480469 43.1875 21.789062 42.304688 21.90625 C 42.332031 21.894531 42.363281 21.894531 42.386719 21.875 C 42.472656 21.785156 42.472656 21.644531 42.386719 21.558594 L 41.535156 20.707031 L 42.292969 19.949219 L 42.910156 20.566406 L 42.460938 21.015625 C 42.371094 21.101562 42.371094 21.242188 42.460938 21.328125 C 42.546875 21.414062 42.6875 21.417969 42.773438 21.328125 L 44.503906 19.601562 C 44.53125 19.613281 44.558594 19.636719 44.589844 19.636719 C 44.644531 19.636719 44.703125 19.617188 44.746094 19.570312 C 44.8125 19.503906 44.8125 19.410156 44.773438 19.328125 L 45.347656 18.753906 C 45.433594 18.667969 45.433594 18.527344 45.347656 18.441406 C 45.261719 18.351562 45.121094 18.351562 45.03125 18.441406 L 44.480469 18.992188 L 43.796875 18.308594 C 43.789062 18.261719 43.777344 18.214844 43.742188 18.179688 C 43.707031 18.144531 43.664062 18.132812 43.617188 18.128906 L 42.402344 16.914062 C 42.390625 16.890625 42.394531 16.863281 42.375 16.847656 C 42.355469 16.828125 42.332031 16.832031 42.308594 16.820312 L 41.9375 16.449219 C 41.847656 16.359375 41.710938 16.359375 41.621094 16.449219 C 41.535156 16.535156 41.535156 16.675781 41.621094 16.761719 L 41.882812 17.023438 L 40.9375 17.96875 L 40.445312 17.472656 C 40.355469 17.386719 40.214844 17.386719 40.128906 17.472656 C 40.042969 17.5625 40.042969 17.703125 40.128906 17.789062 L 40.625 18.285156 L 39.867188 19.039062 L 39.511719 18.6875 C 39.425781 18.597656 39.285156 18.597656 39.195312 18.6875 C 39.109375 18.773438 39.109375 18.914062 39.195312 19 L 39.550781 19.355469 L 38.933594 19.972656 L 38.207031 19.246094 C 38.117188 19.15625 37.976562 19.15625 37.890625 19.246094 C 37.804688 19.332031 37.804688 19.472656 37.890625 19.558594 L 38.621094 20.289062 L 38.019531 20.890625 C 34.066406 18.117188 34.796875 11.632812 41.28125 11.632812 C 43.492188 11.632812 45.777344 12.605469 46.65625 14.625 C 47.269531 16.078125 47.136719 17.996094 46.082031 19.59375 C 45.710938 20.152344 45.253906 20.621094 44.734375 20.984375 Z M 58.742188 29.320312 C 58.757812 29.089844 59.101562 23.964844 59.101562 23.75 C 59.765625 23.835938 60.675781 23.941406 61.757812 23.964844 C 62.097656 25.039062 62.023438 27.390625 61.960938 28.511719 L 61.960938 28.515625 C 61.917969 29.390625 61.832031 30.386719 61.3125 31.113281 C 60.679688 32.003906 58.515625 32.796875 58.742188 29.320312 Z M 64.25 22.390625 C 63.441406 23.574219 58.484375 23.09375 57.542969 22.277344 C 57.132812 21.921875 56.96875 21.355469 57.085938 20.78125 C 60.742188 20.890625 62.367188 21.042969 63.929688 20.539062 C 64.410156 21.042969 64.609375 21.859375 64.25 22.390625 Z M 63.96875 19.582031 L 63.976562 19.605469 C 61.039062 20 66.785156 20.179688 49.226562 19.652344 C 48.585938 19.636719 47.867188 19.609375 47.164062 19.511719 C 48.035156 17.851562 48.203125 15.664062 47.328125 13.964844 C 48.3125 13.898438 49.367188 13.960938 50.394531 14.019531 C 55.683594 14.339844 61.835938 13.671875 64.011719 14.539062 C 66.789062 15.65625 66.539062 18.5625 63.96875 19.582031 Z M 63.96875 19.582031 " fill-opacity="1" fill-rule="nonzero"/></g><path fill="#ffffff" d="M 22 32.730469 C 20.46875 33.007812 19.324219 33.925781 18.933594 35.183594 C 17.664062 39.257812 23.539062 42.386719 26.304688 38.871094 C 27.203125 37.726562 27.4375 36.171875 26.902344 34.910156 C 26.191406 33.21875 24.070312 32.359375 22 32.730469 Z M 22.289062 33.800781 L 22.511719 33.578125 C 23.003906 33.53125 23.375 33.511719 24.0625 33.6875 L 24.082031 33.707031 L 23.136719 34.652344 Z M 20.011719 34.949219 L 21.472656 36.410156 L 20.761719 37.121094 L 19.6875 36.046875 C 19.714844 35.605469 19.78125 35.339844 20.011719 34.949219 Z M 19.726562 36.714844 L 20.449219 37.4375 L 20.109375 37.777344 C 19.917969 37.4375 19.789062 37.082031 19.726562 36.714844 Z M 20.359375 38.15625 L 20.761719 37.75 C 21.027344 38.019531 21.410156 38.574219 21.652344 38.328125 C 21.738281 38.242188 21.738281 38.101562 21.652344 38.011719 L 21.078125 37.4375 L 21.785156 36.726562 L 21.808594 36.746094 C 21.894531 36.832031 22.035156 36.832031 22.121094 36.746094 C 22.207031 36.660156 22.207031 36.519531 22.121094 36.429688 L 22.101562 36.410156 L 22.929688 35.585938 C 23.136719 35.375 22.824219 35.0625 22.613281 35.269531 L 21.785156 36.097656 L 20.277344 34.585938 C 20.636719 34.183594 21.140625 33.875 21.757812 33.703125 C 21.535156 33.921875 21.183594 34.167969 21.394531 34.378906 C 21.484375 34.464844 21.621094 34.464844 21.710938 34.378906 L 21.972656 34.117188 L 22.851562 34.992188 C 22.792969 35.160156 22.902344 35.328125 23.113281 35.253906 C 23.21875 35.359375 23.398438 35.585938 23.539062 35.585938 C 23.59375 35.585938 23.652344 35.566406 23.695312 35.519531 C 23.78125 35.433594 23.78125 35.292969 23.695312 35.207031 L 23.453125 34.964844 L 24.398438 34.019531 L 25.265625 34.890625 C 25.351562 34.976562 25.492188 34.976562 25.582031 34.890625 C 25.667969 34.804688 25.667969 34.664062 25.582031 34.574219 L 25.214844 34.207031 C 25.601562 34.484375 25.898438 34.820312 26.082031 35.253906 C 27.453125 38.492188 22.734375 41.296875 20.359375 38.15625 Z M 20.359375 38.15625 " fill-opacity="1" fill-rule="nonzero"/><path fill="#ffffff" d="M 45.953125 17.859375 L 44.1875 16.09375 L 45.320312 14.960938 L 45.773438 15.414062 C 45.859375 15.5 46 15.5 46.085938 15.414062 C 46.175781 15.328125 46.175781 15.1875 46.085938 15.101562 L 45.632812 14.648438 L 45.710938 14.570312 C 45.796875 14.484375 45.796875 14.34375 45.710938 14.253906 C 45.625 14.167969 45.484375 14.167969 45.398438 14.253906 L 45.320312 14.332031 L 43.890625 12.90625 C 43.804688 12.820312 43.664062 12.820312 43.578125 12.90625 C 43.488281 12.992188 43.488281 13.132812 43.578125 13.222656 L 45.003906 14.648438 L 43.875 15.777344 L 42.773438 14.675781 C 42.6875 14.589844 42.546875 14.589844 42.457031 14.675781 C 42.371094 14.765625 42.371094 14.90625 42.457031 14.992188 L 43.558594 16.09375 L 43.203125 16.449219 C 43.117188 16.535156 43.117188 16.675781 43.203125 16.761719 C 43.292969 16.851562 43.433594 16.847656 43.519531 16.761719 L 43.875 16.40625 L 45.640625 18.171875 C 45.726562 18.257812 45.867188 18.261719 45.953125 18.171875 C 46.042969 18.085938 46.042969 17.945312 45.953125 17.859375 Z M 45.953125 17.859375 " fill-opacity="1" fill-rule="nonzero"/></svg>