<svg xmlns="http://www.w3.org/2000/svg" xmlns:xlink="http://www.w3.org/1999/xlink" width="100" zoomAndPan="magnify" viewBox="0 0 75 74.999997" height="100" preserveAspectRatio="xMidYMid meet" version="1.0"><defs><clipPath id="id1"><path d="M 8.257812 45.671875 L 67.496094 45.671875 L 67.496094 67.480469 L 8.257812 67.480469 Z M 8.257812 45.671875 " clip-rule="nonzero"/></clipPath><clipPath id="id2"><path d="M 8.25 6.730469 L 52 6.730469 L 52 43 L 8.25 43 Z M 8.25 6.730469 " clip-rule="nonzero"/></clipPath></defs><rect x="-7.5" width="90" fill="#ffffff" y="-7.5" height="89.999996" fill-opacity="1"/><rect x="-7.5" width="90" fill="#ffffff" y="-7.5" height="89.999996" fill-opacity="1"/><rect x="-7.5" width="90" fill="#ffffff" y="-7.5" height="89.999996" fill-opacity="1"/><g clip-path="url(#id1)"><path fill="#ffffff" d="M 56.605469 66.109375 L 9.628906 66.109375 L 9.628906 47.074219 L 56.605469 47.074219 C 61.855469 47.074219 66.125 51.34375 66.125 56.59375 C 66.125 61.839844 61.855469 66.109375 56.605469 66.109375 Z M 56.605469 45.703125 L 8.941406 45.703125 C 8.5625 45.703125 8.257812 46.007812 8.257812 46.386719 L 8.257812 66.796875 C 8.257812 67.175781 8.5625 67.480469 8.941406 67.480469 L 56.605469 67.480469 C 62.609375 67.480469 67.496094 62.597656 67.496094 56.59375 C 67.496094 50.585938 62.609375 45.703125 56.605469 45.703125 " fill-opacity="1" fill-rule="nonzero"/></g><path fill="#ffffff" d="M 47.21875 51.007812 L 14.628906 51.007812 C 14.25 51.007812 13.945312 51.316406 13.945312 51.691406 C 13.945312 52.070312 14.25 52.378906 14.628906 52.378906 L 47.21875 52.378906 C 47.597656 52.378906 47.90625 52.070312 47.90625 51.691406 C 47.90625 51.316406 47.597656 51.007812 47.21875 51.007812 " fill-opacity="1" fill-rule="nonzero"/><path fill="#ffffff" d="M 47.21875 60.804688 L 14.628906 60.804688 C 14.25 60.804688 13.945312 61.113281 13.945312 61.488281 C 13.945312 61.867188 14.25 62.175781 14.628906 62.175781 L 47.21875 62.175781 C 47.597656 62.175781 47.90625 61.867188 47.90625 61.488281 C 47.90625 61.113281 47.597656 60.804688 47.21875 60.804688 " fill-opacity="1" fill-rule="nonzero"/><path fill="#ffffff" d="M 43.738281 56.59375 C 43.738281 55.792969 43.089844 55.144531 42.292969 55.144531 C 41.496094 55.144531 40.847656 55.792969 40.847656 56.59375 C 40.847656 57.390625 41.496094 58.039062 42.292969 58.039062 C 43.089844 58.039062 43.738281 57.390625 43.738281 56.59375 " fill-opacity="1" fill-rule="nonzero"/><path fill="#ffffff" d="M 36.160156 56.59375 C 36.160156 55.792969 35.511719 55.144531 34.714844 55.144531 C 33.917969 55.144531 33.265625 55.792969 33.265625 56.59375 C 33.265625 57.390625 33.917969 58.039062 34.714844 58.039062 C 35.511719 58.039062 36.160156 57.390625 36.160156 56.59375 " fill-opacity="1" fill-rule="nonzero"/><path fill="#ffffff" d="M 28.582031 56.59375 C 28.582031 55.792969 27.933594 55.144531 27.136719 55.144531 C 26.335938 55.144531 25.6875 55.792969 25.6875 56.59375 C 25.6875 57.390625 26.335938 58.039062 27.136719 58.039062 C 27.933594 58.039062 28.582031 57.390625 28.582031 56.59375 " fill-opacity="1" fill-rule="nonzero"/><path fill="#ffffff" d="M 21.003906 56.59375 C 21.003906 55.792969 20.355469 55.144531 19.558594 55.144531 C 18.757812 55.144531 18.109375 55.792969 18.109375 56.59375 C 18.109375 57.390625 18.757812 58.039062 19.558594 58.039062 C 20.355469 58.039062 21.003906 57.390625 21.003906 56.59375 " fill-opacity="1" fill-rule="nonzero"/><g clip-path="url(#id2)"><path fill="#ffffff" d="M 14.871094 8.101562 C 17.761719 8.101562 20.113281 10.453125 20.113281 13.34375 C 20.113281 16.234375 17.761719 18.585938 14.871094 18.585938 C 11.980469 18.585938 9.628906 16.234375 9.628906 13.34375 C 9.628906 10.453125 11.980469 8.101562 14.871094 8.101562 Z M 37.703125 10.984375 L 37.703125 15.703125 L 21.046875 15.703125 C 21.328125 14.96875 21.484375 14.175781 21.484375 13.34375 C 21.484375 12.511719 21.328125 11.714844 21.046875 10.984375 Z M 39.074219 9.511719 L 50.492188 9.511719 L 50.492188 17.171875 L 39.074219 17.171875 Z M 48.660156 22.3125 L 44.78125 24.292969 L 40.90625 22.3125 L 40.90625 18.542969 L 48.660156 18.542969 Z M 11.097656 18.769531 L 18.753906 42.335938 C 18.871094 42.695312 19.257812 42.894531 19.617188 42.777344 C 19.980469 42.660156 20.175781 42.273438 20.058594 41.914062 L 12.816406 19.625 C 13.464844 19.839844 14.152344 19.953125 14.871094 19.953125 C 17 19.953125 18.894531 18.941406 20.105469 17.375 L 28.214844 42.335938 C 28.308594 42.625 28.578125 42.808594 28.867188 42.808594 C 28.9375 42.808594 29.007812 42.800781 29.078125 42.777344 C 29.441406 42.660156 29.636719 42.273438 29.519531 41.914062 L 21.445312 17.074219 L 37.703125 17.074219 L 37.703125 17.859375 C 37.703125 18.234375 38.011719 18.542969 38.386719 18.542969 L 39.535156 18.542969 L 39.535156 22.730469 C 39.535156 22.988281 39.679688 23.226562 39.910156 23.34375 L 44.097656 25.480469 L 44.097656 28.246094 C 44.097656 28.625 44.402344 28.929688 44.78125 28.929688 C 45.160156 28.929688 45.46875 28.625 45.46875 28.246094 L 45.46875 25.480469 L 49.65625 23.34375 C 49.886719 23.226562 50.027344 22.988281 50.027344 22.730469 L 50.027344 18.542969 L 51.175781 18.542969 C 51.554688 18.542969 51.863281 18.234375 51.863281 17.859375 L 51.863281 8.828125 C 51.863281 8.449219 51.554688 8.140625 51.175781 8.140625 L 38.386719 8.140625 C 38.011719 8.140625 37.703125 8.449219 37.703125 8.828125 L 37.703125 9.613281 L 20.328125 9.613281 C 19.132812 7.875 17.132812 6.730469 14.871094 6.730469 C 11.222656 6.730469 8.257812 9.695312 8.257812 13.34375 C 8.257812 15.585938 9.382812 17.570312 11.097656 18.769531 " fill-opacity="1" fill-rule="nonzero"/></g><path fill="#ffffff" d="M 56.605469 61.414062 C 53.945312 61.414062 51.78125 59.25 51.78125 56.59375 C 51.78125 53.933594 53.945312 51.769531 56.605469 51.769531 C 59.265625 51.769531 61.425781 53.933594 61.425781 56.59375 C 61.425781 59.25 59.265625 61.414062 56.605469 61.414062 Z M 56.605469 50.398438 C 53.1875 50.398438 50.410156 53.175781 50.410156 56.59375 C 50.410156 60.007812 53.1875 62.785156 56.605469 62.785156 C 60.019531 62.785156 62.796875 60.007812 62.796875 56.59375 C 62.796875 53.175781 60.019531 50.398438 56.605469 50.398438 " fill-opacity="1" fill-rule="nonzero"/></svg>