<svg xmlns="http://www.w3.org/2000/svg" xmlns:xlink="http://www.w3.org/1999/xlink" width="100" zoomAndPan="magnify" viewBox="0 0 75 74.999997" height="100" preserveAspectRatio="xMidYMid meet" version="1.0"><defs><clipPath id="id1"><path d="M 13.417969 5.632812 L 62.0625 5.632812 L 62.0625 68.632812 L 13.417969 68.632812 Z M 13.417969 5.632812 " clip-rule="nonzero"/></clipPath></defs><rect x="-7.5" width="90" fill="#ffffff" y="-7.5" height="89.999996" fill-opacity="1"/><rect x="-7.5" width="90" fill="#ffffff" y="-7.5" height="89.999996" fill-opacity="1"/><rect x="-7.5" width="90" fill="#ffffff" y="-7.5" height="89.999996" fill-opacity="1"/><g clip-path="url(#id1)"><path fill="#ffffff" d="M 56.769531 44.703125 L 56.765625 44.703125 C 56.0625 44.972656 55.324219 45.113281 54.578125 45.113281 C 52.050781 45.113281 49.75 43.515625 48.84375 41.136719 C 48.257812 39.597656 48.304688 37.917969 48.972656 36.414062 C 49.640625 34.90625 50.851562 33.75 52.382812 33.164062 C 53.085938 32.890625 53.824219 32.75 54.574219 32.75 C 57.101562 32.75 59.40625 34.347656 60.308594 36.726562 C 61.515625 39.90625 59.929688 43.484375 56.769531 44.703125 Z M 39.484375 51.152344 C 40.300781 49.921875 40.765625 48.441406 40.738281 46.851562 C 40.683594 43.765625 38.746094 41.117188 36.046875 40.011719 L 47.253906 37.402344 C 46.964844 38.800781 47.066406 40.257812 47.585938 41.621094 C 48.460938 43.925781 50.414062 45.609375 52.726562 46.210938 Z M 52.308594 63.75 L 18.035156 63.75 L 26.089844 49.15625 C 27.023438 52.253906 29.894531 54.527344 33.25 54.527344 L 33.390625 54.527344 C 34.671875 54.503906 35.875 54.15625 36.921875 53.558594 L 44.011719 50.914062 Z M 55.25 65.109375 L 55.25 67.273438 L 14.769531 67.273438 L 14.769531 65.109375 Z M 33.257812 40.8125 C 36.578125 40.8125 39.328125 43.535156 39.390625 46.878906 C 39.449219 50.285156 36.746094 53.105469 33.363281 53.171875 L 33.25 53.171875 C 29.929688 53.171875 27.175781 50.453125 27.117188 47.105469 C 27.050781 43.703125 29.753906 40.878906 33.257812 40.8125 Z M 41.625 22.523438 C 41.90625 22.558594 42.1875 22.589844 42.472656 22.589844 C 43.386719 22.589844 44.285156 22.425781 45.144531 22.09375 C 46.679688 21.503906 47.925781 20.429688 48.785156 19.050781 L 56.609375 31.695312 C 55.953125 31.507812 55.273438 31.394531 54.574219 31.394531 C 53.660156 31.394531 52.761719 31.5625 51.902344 31.890625 C 50.613281 32.386719 49.535156 33.226562 48.707031 34.289062 Z M 36.734375 17.257812 C 35.527344 14.074219 37.121094 10.496094 40.28125 9.28125 C 40.988281 9.011719 41.722656 8.875 42.46875 8.875 C 44.996094 8.875 47.300781 10.46875 48.203125 12.851562 C 48.789062 14.386719 48.746094 16.066406 48.074219 17.574219 C 47.40625 19.082031 46.195312 20.234375 44.664062 20.824219 C 43.957031 21.09375 43.222656 21.234375 42.472656 21.234375 C 39.945312 21.234375 37.640625 19.636719 36.734375 17.257812 Z M 35.074219 16.207031 L 32.140625 14.691406 L 33.753906 7.449219 L 38.273438 8.820312 C 35.890625 10.449219 34.632812 13.335938 35.074219 16.207031 Z M 27.40625 14.355469 L 20.089844 14.355469 L 20.089844 6.988281 L 27.40625 6.988281 Z M 61.570312 36.238281 C 61.027344 34.808594 60.0625 33.613281 58.863281 32.765625 L 49.480469 17.605469 C 50.09375 15.90625 50.113281 14.070312 49.464844 12.363281 C 48.363281 9.464844 45.550781 7.515625 42.46875 7.515625 C 41.644531 7.515625 40.835938 7.671875 40.050781 7.941406 L 32.753906 5.726562 L 31.78125 10.089844 L 28.753906 10.089844 L 28.753906 5.632812 L 18.738281 5.632812 L 18.738281 15.714844 L 23.070312 15.714844 L 23.070312 21.234375 L 17.882812 21.234375 L 17.882812 29.207031 L 28.519531 29.207031 L 28.519531 24.308594 L 27.167969 24.308594 L 27.167969 27.847656 L 19.230469 27.847656 L 19.230469 22.589844 L 24.421875 22.589844 L 24.421875 15.714844 L 28.753906 15.714844 L 28.753906 11.445312 L 31.476562 11.445312 L 30.59375 15.417969 L 35.597656 18 C 36.394531 19.882812 37.917969 21.324219 39.761719 22.050781 L 47.902344 35.570312 C 47.851562 35.667969 47.785156 35.757812 47.738281 35.859375 C 47.734375 35.871094 47.730469 35.886719 47.726562 35.898438 L 31.742188 39.617188 C 31.640625 39.636719 31.214844 39.75 31.214844 39.75 C 28.085938 40.640625 25.796875 43.527344 25.773438 46.933594 L 16.492188 63.75 L 13.417969 63.75 L 13.417969 68.632812 L 56.597656 68.632812 L 56.597656 63.75 L 53.917969 63.75 L 45.308594 50.429688 L 57.242188 45.972656 C 57.242188 45.972656 57.246094 45.972656 57.25 45.972656 C 61.105469 44.488281 63.042969 40.121094 61.570312 36.238281 " fill-opacity="1" fill-rule="nonzero"/></g><path fill="#ffffff" d="M 55.550781 41.5 C 54.171875 42.027344 52.546875 41.28125 52.027344 39.914062 C 51.488281 38.496094 52.195312 36.90625 53.601562 36.363281 C 53.914062 36.242188 54.242188 36.179688 54.574219 36.179688 C 55.703125 36.179688 56.726562 36.894531 57.128906 37.949219 C 57.664062 39.367188 56.957031 40.960938 55.550781 41.5 Z M 54.574219 34.824219 C 54.074219 34.824219 53.589844 34.914062 53.121094 35.09375 C 51.019531 35.90625 49.960938 38.285156 50.765625 40.398438 C 51.367188 41.976562 52.898438 43.039062 54.578125 43.039062 C 55.074219 43.039062 55.566406 42.949219 56.03125 42.769531 C 58.136719 41.960938 59.191406 39.582031 58.386719 37.464844 C 57.789062 35.886719 56.257812 34.824219 54.574219 34.824219 " fill-opacity="1" fill-rule="nonzero"/><path fill="#ffffff" d="M 39.917969 16.035156 C 39.382812 14.617188 40.089844 13.023438 41.496094 12.484375 C 41.808594 12.363281 42.140625 12.304688 42.472656 12.304688 C 43.597656 12.304688 44.621094 13.015625 45.023438 14.070312 C 45.558594 15.488281 44.855469 17.082031 43.445312 17.621094 C 42.074219 18.152344 40.441406 17.40625 39.917969 16.035156 Z M 43.929688 18.890625 C 46.027344 18.082031 47.085938 15.703125 46.28125 13.585938 C 45.683594 12.007812 44.152344 10.945312 42.472656 10.945312 C 41.972656 10.945312 41.484375 11.035156 41.011719 11.214844 C 38.914062 12.023438 37.855469 14.402344 38.660156 16.519531 C 39.261719 18.101562 40.792969 19.160156 42.472656 19.160156 C 42.972656 19.160156 43.460938 19.070312 43.929688 18.890625 " fill-opacity="1" fill-rule="nonzero"/><path fill="#ffffff" d="M 33.253906 44.242188 C 34.734375 44.242188 35.957031 45.453125 35.980469 46.9375 C 36.007812 48.457031 34.804688 49.714844 33.300781 49.742188 L 33.25 49.742188 C 31.769531 49.742188 30.546875 48.53125 30.519531 47.046875 C 30.496094 45.527344 31.695312 44.269531 33.253906 44.242188 Z M 33.25 51.097656 L 33.328125 51.097656 C 35.574219 51.054688 37.371094 49.179688 37.332031 46.914062 C 37.292969 44.691406 35.464844 42.886719 33.179688 42.886719 C 30.929688 42.929688 29.132812 44.804688 29.171875 47.070312 C 29.210938 49.292969 31.039062 51.097656 33.25 51.097656 " fill-opacity="1" fill-rule="nonzero"/></svg>