<svg xmlns="http://www.w3.org/2000/svg" xmlns:xlink="http://www.w3.org/1999/xlink" width="180" zoomAndPan="magnify" viewBox="0 0 135 33.749998" height="45" preserveAspectRatio="xMidYMid meet" version="1.0"><defs><g/><clipPath id="id1"><path d="M 36 11 L 37.898438 11 L 37.898438 15 L 36 15 Z M 36 11 " clip-rule="nonzero"/></clipPath><clipPath id="id2"><path d="M 35 11 L 37.898438 11 L 37.898438 15 L 35 15 Z M 35 11 " clip-rule="nonzero"/></clipPath><clipPath id="id3"><path d="M 34 10 L 37.898438 10 L 37.898438 14 L 34 14 Z M 34 10 " clip-rule="nonzero"/></clipPath><clipPath id="id4"><path d="M 5.140625 1.644531 L 11 1.644531 L 11 6 L 5.140625 6 Z M 5.140625 1.644531 " clip-rule="nonzero"/></clipPath><clipPath id="id5"><path d="M 5.140625 1.644531 L 12 1.644531 L 12 6 L 5.140625 6 Z M 5.140625 1.644531 " clip-rule="nonzero"/></clipPath><clipPath id="id6"><path d="M 10 1.644531 L 16 1.644531 L 16 8 L 10 8 Z M 10 1.644531 " clip-rule="nonzero"/></clipPath><clipPath id="id7"><path d="M 9 1.644531 L 16 1.644531 L 16 8 L 9 8 Z M 9 1.644531 " clip-rule="nonzero"/></clipPath><clipPath id="id8"><path d="M 7 30 L 22 30 L 22 32.167969 L 7 32.167969 Z M 7 30 " clip-rule="nonzero"/></clipPath></defs><path fill="#f4f4f4" d="M 13.773438 25.265625 L 9.65625 25.265625 L 9.65625 19.542969 L 13.773438 19.542969 L 13.773438 25.265625 " fill-opacity="1" fill-rule="nonzero"/><path stroke-linecap="round" transform="matrix(0.0142254, 0, 0, -0.0145214, -8.731407, 47.794106)" fill="none" stroke-linejoin="round" d="M 1582.013983 1551.403255 L 1292.589712 1551.403255 L 1292.589712 1945.488745 L 1582.013983 1945.488745 Z M 1582.013983 1551.403255 " stroke="#181821" stroke-width="30" stroke-opacity="1" stroke-miterlimit="10"/><path fill="#f4f4f4" d="M 11.503906 19.457031 L 9.65625 19.457031 L 9.65625 17.398438 L 11.503906 17.398438 L 11.503906 19.457031 " fill-opacity="1" fill-rule="nonzero"/><path stroke-linecap="round" transform="matrix(0.0142254, 0, 0, -0.0145214, -8.731407, 47.794106)" fill="none" stroke-linejoin="round" d="M 1422.473659 1951.406753 L 1292.589712 1951.406753 L 1292.589712 2093.169929 L 1422.473659 2093.169929 Z M 1422.473659 1951.406753 " stroke="#181821" stroke-width="30" stroke-opacity="1" stroke-miterlimit="10"/><path fill="#f4f4f4" d="M 32.027344 8.9375 L 33.039062 8.34375 L 34.15625 10.324219 L 33.140625 10.917969 L 32.027344 8.9375 " fill-opacity="1" fill-rule="nonzero"/><path stroke-linecap="round" transform="matrix(0.0142254, 0, 0, -0.0145214, -8.731407, 47.794106)" fill="none" stroke-linejoin="round" d="M 2865.201477 2675.824654 L 2936.321862 2716.712705 L 3014.856342 2580.329535 L 2943.46136 2539.441484 Z M 2865.201477 2675.824654 " stroke="#181821" stroke-width="30" stroke-opacity="1" stroke-miterlimit="10"/><path fill="#f4f4f4" d="M 32.285156 10.558594 L 34.28125 9.386719 L 34.839844 10.375 L 32.839844 11.546875 L 32.285156 10.558594 " fill-opacity="1" fill-rule="nonzero"/><path stroke-linecap="round" transform="matrix(0.0142254, 0, 0, -0.0145214, -8.731407, 47.794106)" fill="none" stroke-linejoin="round" d="M 2883.324818 2564.189515 L 3023.643416 2644.889616 L 3062.910656 2576.832531 L 2922.317462 2496.132431 Z M 2883.324818 2564.189515 " stroke="#181821" stroke-width="30" stroke-opacity="1" stroke-miterlimit="10"/><path fill="#f4f4f4" d="M 31.957031 12.066406 L 35.722656 9.859375 L 36 10.351562 L 32.238281 12.558594 L 31.957031 12.066406 " fill-opacity="1" fill-rule="nonzero"/><path stroke-linecap="round" transform="matrix(0.0142254, 0, 0, -0.0145214, -8.731407, 47.794106)" fill="none" stroke-linejoin="round" d="M 2860.258747 2460.355386 L 3124.969371 2612.340575 L 3144.465693 2578.446533 L 2880.029665 2426.461344 Z M 2860.258747 2460.355386 " stroke="#181821" stroke-width="30" stroke-opacity="1" stroke-miterlimit="10"/><g clip-path="url(#id1)"><path fill="#f4f4f4" d="M 36.132812 12.230469 L 36.59375 11.960938 L 37.640625 13.820312 L 37.183594 14.089844 L 36.132812 12.230469 " fill-opacity="1" fill-rule="nonzero"/></g><g clip-path="url(#id2)"><path stroke-linecap="round" transform="matrix(0.0142254, 0, 0, -0.0145214, -8.731407, 47.794106)" fill="none" stroke-linejoin="round" d="M 3153.80196 2449.057372 L 3186.204297 2467.618395 L 3259.796047 2339.574236 L 3227.668306 2321.013213 Z M 3153.80196 2449.057372 " stroke="#181821" stroke-width="30" stroke-opacity="1" stroke-miterlimit="10"/></g><path fill="#f4f4f4" d="M 34.816406 11.046875 L 35.765625 10.492188 L 36.8125 12.351562 L 35.863281 12.910156 L 34.816406 11.046875 " fill-opacity="1" fill-rule="nonzero"/><g clip-path="url(#id3)"><path stroke-linecap="round" transform="matrix(0.0142254, 0, 0, -0.0145214, -8.731407, 47.794106)" fill="none" stroke-linejoin="round" d="M 3061.26308 2530.564473 L 3127.989928 2568.762521 L 3201.581678 2440.718362 L 3134.85483 2402.251314 Z M 3061.26308 2530.564473 " stroke="#181821" stroke-width="30" stroke-opacity="1" stroke-miterlimit="10"/></g><path fill="#f4f4f4" d="M 33.757812 13.625 L 33.296875 13.894531 L 34.347656 15.753906 L 34.804688 15.484375 L 33.757812 13.625 " fill-opacity="1" fill-rule="nonzero"/><path stroke-linecap="round" transform="matrix(0.0142254, 0, 0, -0.0145214, -8.731407, 47.794106)" fill="none" stroke-linejoin="round" d="M 2986.847541 2353.024252 L 2954.445204 2334.463229 L 3028.31155 2206.41907 L 3060.439291 2224.980093 Z M 2986.847541 2353.024252 " stroke="#181821" stroke-width="30" stroke-opacity="1" stroke-miterlimit="10"/><path fill="#f4f4f4" d="M 33.421875 11.863281 L 32.472656 12.421875 L 33.519531 14.28125 L 34.46875 13.726562 L 33.421875 11.863281 " fill-opacity="1" fill-rule="nonzero"/><path stroke-linecap="round" transform="matrix(0.0142254, 0, 0, -0.0145214, -8.731407, 47.794106)" fill="none" stroke-linejoin="round" d="M 2963.232278 2474.343403 L 2896.50543 2435.876356 L 2970.09718 2307.832196 L 3036.824028 2346.030244 Z M 2963.232278 2474.343403 " stroke="#181821" stroke-width="30" stroke-opacity="1" stroke-miterlimit="10"/><path fill="#f4f4f4" d="M 13.800781 5.910156 L 14.25 3.582031 L 27.539062 6.253906 L 27.089844 8.582031 L 13.800781 5.910156 " fill-opacity="1" fill-rule="nonzero"/><path stroke-linecap="round" transform="matrix(0.0142254, 0, 0, -0.0145214, -8.731407, 47.794106)" fill="none" stroke-linejoin="round" d="M 1583.936155 2884.299914 L 1615.514705 3044.624113 L 2549.690578 2860.627884 L 2518.112028 2700.303685 Z M 1583.936155 2884.299914 " stroke="#181821" stroke-width="30" stroke-opacity="1" stroke-miterlimit="10"/><g clip-path="url(#id4)"><path fill="#f4f4f4" d="M 10.789062 2.886719 L 5.832031 1.890625 L 5.382812 4.21875 L 10.339844 5.214844 C 10.652344 4.472656 10.804688 3.695312 10.789062 2.886719 " fill-opacity="1" fill-rule="nonzero"/></g><g clip-path="url(#id5)"><path stroke-linecap="round" transform="matrix(0.0142254, 0, 0, -0.0145214, -8.731407, 47.794106)" fill="none" stroke-linejoin="round" d="M 1372.222576 3092.506173 L 1023.760147 3161.101258 L 992.181597 3000.777059 L 1340.644026 2932.181973 C 1362.611713 2983.292037 1373.32096 3036.823103 1372.222576 3092.506173 Z M 1372.222576 3092.506173 " stroke="#181821" stroke-width="30" stroke-opacity="1" stroke-miterlimit="10"/></g><path fill="#f4f4f4" d="M 15.691406 6.8125 L 16.335938 3.480469 L 15.550781 3.320312 L 14.90625 6.65625 L 15.691406 6.8125 " fill-opacity="1" fill-rule="nonzero"/><path stroke-linecap="round" transform="matrix(0.0142254, 0, 0, -0.0145214, -8.731407, 47.794106)" fill="none" stroke-linejoin="round" d="M 1716.840659 2822.160836 L 1762.149013 3051.618122 L 1706.9552 3062.647136 L 1661.646847 2832.92085 Z M 1716.840659 2822.160836 " stroke="#181821" stroke-width="30" stroke-opacity="1" stroke-miterlimit="10"/><g clip-path="url(#id6)"><path fill="#f4f4f4" d="M 14.730469 7.574219 L 14.90625 6.65625 L 15.550781 3.320312 L 15.726562 2.402344 C 14.152344 2.242188 12.578125 2.078125 11 1.917969 C 10.984375 2.078125 10.96875 2.238281 10.949219 2.398438 C 10.816406 3.523438 10.601562 4.636719 10.304688 5.730469 C 10.265625 5.886719 10.222656 6.039062 10.175781 6.195312 C 11.695312 6.65625 13.210938 7.113281 14.730469 7.574219 " fill-opacity="1" fill-rule="nonzero"/></g><g clip-path="url(#id7)"><path stroke-linecap="round" transform="matrix(0.0142254, 0, 0, -0.0145214, -8.731407, 47.794106)" fill="none" stroke-linejoin="round" d="M 1649.290023 2769.705771 L 1661.646847 2832.92085 L 1706.9552 3062.647136 L 1719.312024 3125.862214 C 1608.649803 3136.891228 1497.987582 3148.189242 1387.050764 3159.218256 C 1385.95238 3148.189242 1384.853996 3137.160228 1383.481015 3126.131215 C 1374.144748 3048.659118 1359.041964 2971.994023 1338.172662 2896.673929 C 1335.426701 2885.913916 1332.406144 2875.422903 1329.110991 2864.662889 C 1435.928867 2832.92085 1542.472147 2801.447811 1649.290023 2769.705771 Z M 1649.290023 2769.705771 " stroke="#181821" stroke-width="30" stroke-opacity="1" stroke-miterlimit="10"/></g><path fill="#f4f4f4" d="M 29.824219 7.921875 C 29.933594 7.359375 30.46875 6.992188 31.019531 7.105469 C 31.570312 7.214844 31.929688 7.761719 31.820312 8.324219 C 31.710938 8.886719 31.175781 9.253906 30.625 9.144531 C 30.074219 9.03125 29.714844 8.484375 29.824219 7.921875 Z M 31.117188 10.066406 C 32.007812 10.109375 32.820312 9.480469 32.996094 8.5625 C 33.175781 7.640625 32.65625 6.746094 31.816406 6.441406 L 31.820312 6.421875 L 24.949219 5.039062 L 24.242188 8.703125 L 31.113281 10.085938 L 31.117188 10.066406 " fill-opacity="1" fill-rule="nonzero"/><path stroke-linecap="round" transform="matrix(0.0142254, 0, 0, -0.0145214, -8.731407, 47.794106)" fill="none" stroke-linejoin="round" d="M 2710.329286 2745.764741 C 2718.017977 2784.500789 2755.63764 2809.786821 2794.355687 2801.985811 C 2833.073735 2794.453802 2858.336575 2756.793755 2850.647884 2718.057707 C 2842.959194 2679.321659 2805.339531 2654.035627 2766.621483 2661.567636 C 2727.903435 2669.368646 2702.640596 2707.028693 2710.329286 2745.764741 Z M 2801.22059 2598.083557 C 2863.828496 2595.124554 2920.944482 2638.433608 2933.301305 2701.648686 C 2945.932725 2765.132765 2909.411446 2826.733842 2850.373288 2847.715868 L 2850.647884 2849.06087 L 2367.633375 2944.286988 L 2317.931484 2691.964674 L 2800.945993 2596.738556 Z M 2801.22059 2598.083557 " stroke="#181821" stroke-width="30" stroke-opacity="1" stroke-miterlimit="10"/><path fill="#f4f4f4" d="M 10.375 25.265625 C 10.375 25.265625 13.339844 13.734375 17.023438 13.734375 C 20.703125 13.734375 20.28125 16.65625 20.28125 16.65625 L 19.128906 25.265625 L 10.375 25.265625 " fill-opacity="1" fill-rule="nonzero"/><path stroke-linecap="round" transform="matrix(0.0142254, 0, 0, -0.0145214, -8.731407, 47.794106)" fill="none" stroke-linejoin="round" d="M 1343.115391 1551.403255 C 1343.115391 1551.403255 1551.533818 2345.492243 1810.477924 2345.492243 C 2069.147433 2345.492243 2039.491056 2144.279993 2039.491056 2144.279993 L 1958.485212 1551.403255 Z M 1343.115391 1551.403255 " stroke="#181821" stroke-width="30" stroke-opacity="1" stroke-miterlimit="10"/><path fill="#f4f4f4" d="M 16.460938 13.820312 C 13.042969 14.886719 10.375 25.265625 10.375 25.265625 L 16.460938 25.265625 L 16.460938 13.820312 " fill-opacity="1" fill-rule="nonzero"/><path stroke-linecap="round" transform="matrix(0.0142254, 0, 0, -0.0145214, -8.731407, 47.794106)" fill="none" stroke-linejoin="round" d="M 1770.936088 2339.574236 C 1530.664515 2266.137144 1343.115391 1551.403255 1343.115391 1551.403255 L 1770.936088 1551.403255 Z M 1770.936088 2339.574236 " stroke="#181821" stroke-width="30" stroke-opacity="1" stroke-miterlimit="10"/><path fill="#f4f4f4" d="M 20.933594 31.953125 L 7.640625 31.953125 L 7.640625 30.75 L 20.933594 30.75 L 20.933594 31.953125 " fill-opacity="1" fill-rule="nonzero"/><g clip-path="url(#id8)"><path stroke-linecap="round" transform="matrix(0.0142254, 0, 0, -0.0145214, -8.731407, 47.794106)" fill="none" stroke-linejoin="round" d="M 2085.348602 1090.874682 L 1150.898133 1090.874682 L 1150.898133 1173.726785 L 2085.348602 1173.726785 Z M 2085.348602 1090.874682 " stroke="#181821" stroke-width="30" stroke-opacity="1" stroke-miterlimit="10"/></g><path fill="#f4f4f4" d="M 8.9375 25.652344 L 19.636719 25.652344 L 19.636719 30.75 L 8.9375 30.75 L 8.9375 25.652344 " fill-opacity="1" fill-rule="nonzero"/><path stroke-linecap="round" transform="matrix(0.0142254, 0, 0, -0.0145214, -8.731407, 47.794106)" fill="none" stroke-linejoin="round" d="M 1242.064033 1524.772222 L 1994.182703 1524.772222 L 1994.182703 1173.726785 L 1242.064033 1173.726785 Z M 1242.064033 1524.772222 " stroke="#181821" stroke-width="30" stroke-opacity="1" stroke-miterlimit="10"/><path fill="#f4f4f4" d="M 20.203125 25.265625 L 8.371094 25.265625 L 8.371094 25.652344 L 20.203125 25.652344 L 20.203125 25.265625 " fill-opacity="1" fill-rule="nonzero"/><path stroke-linecap="round" transform="matrix(0.0142254, 0, 0, -0.0145214, -8.731407, 47.794106)" fill="none" stroke-linejoin="round" d="M 1202.247601 1524.772222 L 2033.999135 1524.772222 L 2033.999135 1551.403255 L 1202.247601 1551.403255 Z M 1202.247601 1524.772222 " stroke="#181821" stroke-width="30" stroke-opacity="1" stroke-miterlimit="10"/><path fill="#f4f4f4" d="M 14.0625 6.296875 C 12.636719 3.261719 10.222656 4.566406 10.222656 4.566406 C 10.222656 4.566406 8.019531 6.21875 10.078125 8.851562 C 12.136719 11.484375 14.09375 17.648438 15.515625 19.960938 C 16.9375 22.277344 19.964844 20.417969 19.964844 20.417969 C 19.964844 20.417969 22.917969 18.445312 21.496094 16.132812 C 20.074219 13.816406 15.488281 9.335938 14.0625 6.296875 " fill-opacity="1" fill-rule="nonzero"/><path stroke-linecap="round" transform="matrix(0.0142254, 0, 0, -0.0145214, -8.731407, 47.794106)" fill="none" stroke-linejoin="round" d="M 1602.334093 2857.66888 C 1502.106523 3066.682141 1332.406144 2976.836029 1332.406144 2976.836029 C 1332.406144 2976.836029 1177.533953 2863.048887 1322.246089 2681.742662 C 1466.958224 2500.436436 1604.530862 2075.953908 1704.483836 1916.705709 C 1804.43681 1757.188511 2017.248774 1885.23267 2017.248774 1885.23267 C 2017.248774 1885.23267 2224.843412 2021.077839 2124.890438 2180.326038 C 2024.937464 2339.843236 1702.561663 2648.38662 1602.334093 2857.66888 Z M 1602.334093 2857.66888 " stroke="#181821" stroke-width="30" stroke-opacity="1" stroke-miterlimit="10"/><path fill="#f4f4f4" d="M 12.84375 6.070312 C 13.265625 6.757812 13.0625 7.664062 12.390625 8.09375 C 11.71875 8.527344 10.828125 8.320312 10.40625 7.632812 C 9.984375 6.945312 10.1875 6.039062 10.863281 5.605469 C 11.535156 5.175781 12.421875 5.382812 12.84375 6.070312 " fill-opacity="1" fill-rule="nonzero"/><path stroke-linecap="round" transform="matrix(0.0142254, 0, 0, -0.0145214, -8.731407, 47.794106)" fill="none" stroke-linejoin="round" d="M 1516.660115 2873.2709 C 1546.316492 2825.926841 1532.037496 2763.518763 1484.80697 2733.928726 C 1437.576443 2704.069689 1374.968537 2718.326707 1345.31216 2765.670766 C 1315.655783 2813.014825 1329.934779 2875.422903 1377.439901 2905.28194 C 1424.670428 2934.871977 1487.003738 2920.614959 1516.660115 2873.2709 Z M 1516.660115 2873.2709 " stroke="#181821" stroke-width="30" stroke-opacity="1" stroke-miterlimit="10"/><path fill="#f4f4f4" d="M 20.058594 16.527344 C 20.679688 17.535156 20.378906 18.863281 19.394531 19.492188 C 18.410156 20.125 17.109375 19.820312 16.488281 18.8125 C 15.871094 17.808594 16.167969 16.480469 17.15625 15.847656 C 18.140625 15.21875 19.441406 15.519531 20.058594 16.527344 " fill-opacity="1" fill-rule="nonzero"/><path stroke-linecap="round" transform="matrix(0.0142254, 0, 0, -0.0145214, -8.731407, 47.794106)" fill="none" stroke-linejoin="round" d="M 2023.83908 2153.157004 C 2067.499857 2083.754917 2046.355959 1992.294804 1977.157746 1948.98575 C 1907.959533 1905.407695 1816.519037 1926.389722 1772.85826 1995.791808 C 1729.472079 2064.924894 1750.341381 2156.385008 1819.81419 2199.963062 C 1889.012403 2243.272116 1980.452899 2222.55909 2023.83908 2153.157004 Z M 2023.83908 2153.157004 " stroke="#181821" stroke-width="30" stroke-opacity="1" stroke-miterlimit="10"/><g fill="#f4f4f4" fill-opacity="1"><g transform="translate(26.575534, 29.831378)"><g><path d="M 0.714844 -0.390625 L 0.808594 -0.09375 L 1.085938 0.0273438 L 1.277344 0 L 1.582031 0.0273438 L 1.734375 0.0078125 L 2.019531 0.0078125 L 2.324219 -0.0859375 L 2.410156 -0.363281 L 2.410156 -0.6875 L 2.429688 -0.855469 L 2.398438 -1.058594 L 2.417969 -1.667969 L 2.503906 -1.855469 L 2.683594 -1.960938 L 3.238281 -1.886719 L 3.429688 -1.722656 L 3.542969 -1.53125 L 3.617188 -1.363281 L 3.816406 -1.074219 L 4 -0.734375 L 4.105469 -0.589844 L 4.179688 -0.398438 L 4.285156 -0.238281 L 4.496094 -0.0664062 L 4.816406 0.0195312 L 5.570312 0.0078125 L 5.75 0.0273438 L 6.066406 0.0195312 L 6.246094 -0.0664062 L 6.304688 -0.277344 L 6.199219 -0.484375 L 6.085938 -0.617188 L 6.007812 -0.800781 L 5.683594 -1.285156 L 5.597656 -1.457031 L 5.292969 -1.953125 L 5.179688 -2.09375 L 5.171875 -2.324219 L 5.257812 -2.53125 L 5.390625 -2.675781 L 5.523438 -2.789062 L 5.894531 -3.457031 L 6.019531 -4.007812 L 6 -4.609375 L 5.96875 -4.800781 L 5.800781 -5.34375 L 5.722656 -5.503906 L 5.617188 -5.65625 L 5.074219 -6.226562 L 4.742188 -6.410156 L 4.378906 -6.53125 L 3.835938 -6.65625 L 3.53125 -6.664062 L 3.257812 -6.644531 L 2.683594 -6.644531 L 2.496094 -6.683594 L 2.304688 -6.683594 L 2.132812 -6.636719 L 1.941406 -6.636719 L 1.753906 -6.675781 L 1.542969 -6.683594 L 0.980469 -6.636719 L 0.808594 -6.542969 L 0.695312 -6.273438 L 0.703125 -4.09375 L 0.722656 -3.902344 L 0.695312 -3.523438 L 0.703125 -3.3125 L 0.703125 -3.125 L 0.722656 -2.941406 L 0.703125 -2.761719 L 0.695312 -1.988281 L 0.714844 -1.800781 Z M 2.683594 -3.484375 L 2.496094 -3.589844 L 2.417969 -3.742188 L 2.417969 -4.3125 L 2.398438 -4.476562 L 2.417969 -4.875 L 2.503906 -5.054688 L 2.703125 -5.132812 L 2.894531 -5.121094 L 3.277344 -5.160156 L 3.542969 -5.105469 L 3.789062 -5.085938 L 3.96875 -5.039062 L 4.207031 -4.742188 L 4.265625 -4.589844 L 4.304688 -4.34375 L 4.273438 -4.054688 L 4.191406 -3.867188 L 4.085938 -3.722656 L 3.980469 -3.636719 L 3.808594 -3.5625 L 3.53125 -3.496094 L 3.351562 -3.484375 L 2.894531 -3.503906 Z M 2.683594 -3.484375 "/></g></g></g><g fill="#f4f4f4" fill-opacity="1"><g transform="translate(33.179205, 29.831378)"><g><path d="M 3.5625 0.113281 L 4.09375 0.105469 L 4.664062 0.0273438 L 5.378906 -0.210938 L 5.695312 -0.382812 L 5.835938 -0.496094 L 6.019531 -0.582031 L 6.285156 -0.808594 L 6.410156 -0.980469 L 6.542969 -1.113281 L 6.960938 -1.753906 L 7.101562 -2.113281 L 7.179688 -2.476562 L 7.1875 -2.648438 L 7.238281 -2.835938 L 7.246094 -3.039062 L 7.285156 -3.3125 L 7.253906 -3.789062 L 7.1875 -4.179688 L 6.949219 -4.894531 L 6.769531 -5.246094 L 6.5625 -5.53125 L 6.292969 -5.828125 L 6.019531 -6.066406 L 5.800781 -6.21875 L 5.511719 -6.339844 L 5.371094 -6.445312 L 4.636719 -6.675781 L 4.085938 -6.769531 L 3.828125 -6.78125 L 2.820312 -6.636719 L 2.105469 -6.371094 L 1.960938 -6.265625 L 1.789062 -6.179688 L 1.464844 -5.941406 L 1 -5.398438 L 0.703125 -4.894531 L 0.5625 -4.53125 L 0.398438 -3.800781 L 0.371094 -3.027344 L 0.398438 -2.828125 L 0.449219 -2.65625 L 0.464844 -2.476562 L 0.550781 -2.113281 L 0.992188 -1.246094 L 1.105469 -1.132812 L 1.226562 -0.980469 L 1.371094 -0.847656 L 1.476562 -0.722656 L 1.789062 -0.476562 L 2.53125 -0.09375 L 2.808594 0 L 3.019531 0.0195312 L 3.359375 0.09375 Z M 4.09375 -1.570312 L 3.570312 -1.570312 L 3.359375 -1.601562 L 3.019531 -1.742188 L 2.867188 -1.828125 L 2.609375 -2.039062 L 2.484375 -2.171875 L 2.351562 -2.351562 L 2.304688 -2.503906 L 2.21875 -2.675781 L 2.140625 -3.027344 L 2.140625 -3.609375 L 2.191406 -3.78125 L 2.21875 -3.960938 L 2.292969 -4.132812 L 2.351562 -4.304688 L 2.582031 -4.609375 L 3.054688 -4.933594 L 3.179688 -4.980469 L 3.550781 -5.074219 L 3.816406 -5.09375 L 4.273438 -5.039062 L 4.445312 -5 L 4.617188 -4.921875 L 4.914062 -4.714844 L 5.285156 -4.324219 L 5.398438 -3.960938 L 5.484375 -3.78125 L 5.511719 -3.609375 L 5.496094 -3.027344 L 5.417969 -2.675781 L 5.351562 -2.503906 L 5.246094 -2.332031 L 5.191406 -2.191406 L 5.054688 -2.039062 L 4.597656 -1.722656 L 4.425781 -1.675781 L 4.285156 -1.609375 Z M 4.09375 -1.570312 "/></g></g></g><g fill="#f4f4f4" fill-opacity="1"><g transform="translate(40.810531, 29.831378)"><g><path d="M 0.695312 -0.285156 L 0.800781 -0.0664062 L 0.980469 0.0195312 L 4.132812 -0.0195312 L 4.496094 -0.0664062 L 4.808594 -0.191406 L 5.171875 -0.398438 L 5.292969 -0.496094 L 5.445312 -0.636719 L 5.664062 -0.953125 L 5.75 -1.132812 L 5.789062 -1.296875 L 5.867188 -1.484375 L 5.875 -2.246094 L 5.835938 -2.429688 L 5.769531 -2.628906 L 5.597656 -2.960938 L 5.464844 -3.125 L 5.324219 -3.265625 L 5.238281 -3.476562 L 5.273438 -3.664062 L 5.378906 -3.855469 L 5.496094 -4.019531 L 5.628906 -4.703125 L 5.617188 -4.980469 L 5.511719 -5.332031 L 5.417969 -5.511719 L 5.359375 -5.695312 L 5.132812 -6 L 5 -6.132812 L 4.714844 -6.332031 L 4.359375 -6.523438 L 3.828125 -6.644531 L 0.960938 -6.664062 L 0.769531 -6.578125 L 0.6875 -6.378906 L 0.703125 -5.96875 L 0.6875 -5.695312 L 0.722656 -5.054688 L 0.695312 -4.855469 L 0.714844 -4.65625 L 0.695312 -4.476562 L 0.703125 -4.273438 L 0.6875 -4.09375 L 0.6875 -3.332031 L 0.714844 -3.132812 L 0.695312 -2.953125 L 0.695312 -2.570312 L 0.714844 -2.390625 L 0.695312 -1.609375 L 0.722656 -1.21875 L 0.6875 -0.648438 Z M 2.648438 -4.085938 L 2.417969 -4.160156 L 2.324219 -4.351562 L 2.363281 -4.511719 L 2.363281 -4.695312 L 2.34375 -4.875 L 2.445312 -5.039062 L 2.648438 -5.140625 L 3.332031 -5.113281 L 3.628906 -5.054688 L 3.742188 -4.980469 L 3.867188 -4.847656 L 3.894531 -4.589844 L 3.847656 -4.304688 L 3.683594 -4.152344 L 3.359375 -4.085938 Z M 2.617188 -1.515625 L 2.457031 -1.589844 L 2.351562 -1.789062 L 2.363281 -1.953125 L 2.34375 -2.132812 L 2.351562 -2.324219 L 2.417969 -2.496094 L 2.609375 -2.589844 L 3.617188 -2.589844 L 3.886719 -2.542969 L 4.027344 -2.4375 L 4.171875 -2.304688 L 4.191406 -2.039062 L 4.171875 -1.789062 L 4.046875 -1.65625 L 3.875 -1.550781 L 3.359375 -1.503906 Z M 2.617188 -1.515625 "/></g></g></g><g fill="#f4f4f4" fill-opacity="1"><g transform="translate(47.090682, 29.831378)"><g><path d="M 3.5625 0.113281 L 4.09375 0.105469 L 4.664062 0.0273438 L 5.378906 -0.210938 L 5.695312 -0.382812 L 5.835938 -0.496094 L 6.019531 -0.582031 L 6.285156 -0.808594 L 6.410156 -0.980469 L 6.542969 -1.113281 L 6.960938 -1.753906 L 7.101562 -2.113281 L 7.179688 -2.476562 L 7.1875 -2.648438 L 7.238281 -2.835938 L 7.246094 -3.039062 L 7.285156 -3.3125 L 7.253906 -3.789062 L 7.1875 -4.179688 L 6.949219 -4.894531 L 6.769531 -5.246094 L 6.5625 -5.53125 L 6.292969 -5.828125 L 6.019531 -6.066406 L 5.800781 -6.21875 L 5.511719 -6.339844 L 5.371094 -6.445312 L 4.636719 -6.675781 L 4.085938 -6.769531 L 3.828125 -6.78125 L 2.820312 -6.636719 L 2.105469 -6.371094 L 1.960938 -6.265625 L 1.789062 -6.179688 L 1.464844 -5.941406 L 1 -5.398438 L 0.703125 -4.894531 L 0.5625 -4.53125 L 0.398438 -3.800781 L 0.371094 -3.027344 L 0.398438 -2.828125 L 0.449219 -2.65625 L 0.464844 -2.476562 L 0.550781 -2.113281 L 0.992188 -1.246094 L 1.105469 -1.132812 L 1.226562 -0.980469 L 1.371094 -0.847656 L 1.476562 -0.722656 L 1.789062 -0.476562 L 2.53125 -0.09375 L 2.808594 0 L 3.019531 0.0195312 L 3.359375 0.09375 Z M 4.09375 -1.570312 L 3.570312 -1.570312 L 3.359375 -1.601562 L 3.019531 -1.742188 L 2.867188 -1.828125 L 2.609375 -2.039062 L 2.484375 -2.171875 L 2.351562 -2.351562 L 2.304688 -2.503906 L 2.21875 -2.675781 L 2.140625 -3.027344 L 2.140625 -3.609375 L 2.191406 -3.78125 L 2.21875 -3.960938 L 2.292969 -4.132812 L 2.351562 -4.304688 L 2.582031 -4.609375 L 3.054688 -4.933594 L 3.179688 -4.980469 L 3.550781 -5.074219 L 3.816406 -5.09375 L 4.273438 -5.039062 L 4.445312 -5 L 4.617188 -4.921875 L 4.914062 -4.714844 L 5.285156 -4.324219 L 5.398438 -3.960938 L 5.484375 -3.78125 L 5.511719 -3.609375 L 5.496094 -3.027344 L 5.417969 -2.675781 L 5.351562 -2.503906 L 5.246094 -2.332031 L 5.191406 -2.191406 L 5.054688 -2.039062 L 4.597656 -1.722656 L 4.425781 -1.675781 L 4.285156 -1.609375 Z M 4.09375 -1.570312 "/></g></g></g><g fill="#f4f4f4" fill-opacity="1"><g transform="translate(54.722008, 29.831378)"><g><path d="M 1.828125 -0.296875 L 1.90625 -0.09375 L 2.105469 0 L 2.285156 -0.0195312 L 2.476562 0 L 2.65625 -0.0195312 L 3.246094 -0.0195312 L 3.4375 -0.09375 L 3.511719 -0.285156 L 3.503906 -0.464844 L 3.523438 -0.6875 L 3.511719 -1.066406 L 3.484375 -1.226562 L 3.511719 -1.429688 L 3.53125 -2.007812 L 3.511719 -2.179688 L 3.542969 -2.582031 L 3.503906 -4.476562 L 3.53125 -4.664062 L 3.511719 -4.875 L 3.589844 -5.046875 L 3.800781 -5.132812 L 3.960938 -5.140625 L 4.152344 -5.132812 L 4.324219 -5.152344 L 4.847656 -5.140625 L 5.066406 -5.226562 L 5.160156 -5.417969 L 5.140625 -5.617188 L 5.160156 -6.398438 L 5.066406 -6.589844 L 4.875 -6.683594 L 4.648438 -6.664062 L 4.496094 -6.683594 L 4.3125 -6.683594 L 4.105469 -6.65625 L 3.914062 -6.65625 L 3.722656 -6.675781 L 3.53125 -6.675781 L 3.3125 -6.644531 L 0.476562 -6.664062 L 0.265625 -6.570312 L 0.171875 -6.378906 L 0.160156 -5.425781 L 0.265625 -5.21875 L 0.457031 -5.121094 L 0.703125 -5.152344 L 1.550781 -5.140625 L 1.722656 -5.039062 L 1.820312 -4.855469 L 1.847656 -3.808594 L 1.820312 -3.511719 L 1.835938 -3.332031 L 1.820312 -3.140625 L 1.820312 -2.761719 L 1.847656 -2.484375 L 1.808594 -2.199219 L 1.820312 -2.007812 L 1.808594 -1.808594 L 1.835938 -1.226562 L 1.820312 -1.039062 Z M 1.828125 -0.296875 "/></g></g></g><g fill="#f4f4f4" fill-opacity="1"><g transform="translate(60.041096, 29.831378)"><g><path d="M 2.761719 0.078125 L 3.039062 0.105469 L 3.34375 0.09375 L 4.273438 -0.0859375 L 4.769531 -0.351562 L 5.074219 -0.5625 L 5.34375 -0.867188 L 5.53125 -1.171875 L 5.609375 -1.34375 L 5.664062 -1.53125 L 5.695312 -1.703125 L 5.703125 -2.292969 L 5.675781 -2.484375 L 5.628906 -2.667969 L 5.4375 -3.019531 L 5.207031 -3.3125 L 5.046875 -3.445312 L 4.542969 -3.675781 L 3.761719 -3.867188 L 2.800781 -3.988281 L 2.398438 -4.132812 L 2.257812 -4.207031 L 2.105469 -4.359375 L 2.09375 -4.617188 L 2.125 -4.867188 L 2.226562 -5 L 2.390625 -5.121094 L 2.523438 -5.179688 L 2.695312 -5.21875 L 3.304688 -5.238281 L 3.511719 -5.160156 L 3.65625 -5.046875 L 3.96875 -4.714844 L 4.265625 -4.617188 L 4.894531 -4.597656 L 5.066406 -4.617188 L 5.246094 -4.597656 L 5.425781 -4.714844 L 5.511719 -4.894531 L 5.4375 -5.265625 L 5.285156 -5.609375 L 5.160156 -5.761719 L 5.066406 -5.914062 L 4.941406 -6.054688 L 4.332031 -6.476562 L 3.808594 -6.65625 L 3.609375 -6.695312 L 3.4375 -6.714844 L 3.226562 -6.761719 L 2.695312 -6.75 L 1.941406 -6.597656 L 1.769531 -6.53125 L 1.617188 -6.4375 L 1.464844 -6.378906 L 1.277344 -6.265625 L 1.144531 -6.140625 L 0.972656 -6.027344 L 0.867188 -5.867188 L 0.742188 -5.742188 L 0.675781 -5.570312 L 0.582031 -5.417969 L 0.449219 -4.867188 L 0.457031 -4.226562 L 0.523438 -3.960938 L 0.648438 -3.628906 L 0.886719 -3.3125 L 1.152344 -3.066406 L 1.484375 -2.867188 L 2.027344 -2.683594 L 2.371094 -2.609375 L 3.152344 -2.550781 L 3.324219 -2.523438 L 3.511719 -2.515625 L 3.855469 -2.371094 L 3.988281 -2.257812 L 4.039062 -2.007812 L 3.980469 -1.761719 L 3.828125 -1.628906 L 3.675781 -1.542969 L 3.324219 -1.4375 L 3.054688 -1.429688 L 2.769531 -1.449219 L 2.550781 -1.503906 L 2.410156 -1.570312 L 2.238281 -1.675781 L 2.09375 -1.808594 L 1.953125 -2 L 1.761719 -2.074219 L 1.039062 -2.09375 L 0.847656 -2.074219 L 0.65625 -2.085938 L 0.464844 -2 L 0.398438 -1.800781 L 0.417969 -1.589844 L 0.457031 -1.417969 L 0.609375 -1.039062 L 0.847656 -0.742188 L 1.125 -0.464844 L 1.285156 -0.363281 L 1.972656 -0.046875 L 2.179688 -0.0195312 L 2.363281 0.046875 Z M 2.761719 0.078125 "/></g></g></g><g fill="#f4f4f4" fill-opacity="1"><g transform="translate(66.111907, 29.831378)"><g/></g></g><g fill="#f4f4f4" fill-opacity="1"><g transform="translate(68.690568, 29.831378)"><g><path d="M 0.457031 -0.277344 L 0.550781 -0.078125 L 0.742188 -0.0078125 L 3.570312 0.0078125 L 3.75 -0.0859375 L 3.855469 -0.257812 L 3.855469 -0.464844 L 3.835938 -0.636719 L 3.867188 -1.21875 L 3.734375 -1.378906 L 3.09375 -1.582031 L 2.988281 -1.769531 L 3.007812 -2.550781 L 2.972656 -2.933594 L 3.007812 -3.332031 L 2.988281 -3.617188 L 3.007812 -3.914062 L 2.988281 -4.09375 L 3.007812 -4.285156 L 2.988281 -4.484375 L 2.988281 -4.886719 L 3.09375 -5.054688 L 3.277344 -5.160156 L 3.484375 -5.171875 L 3.664062 -5.273438 L 3.769531 -5.457031 L 3.769531 -6.019531 L 3.789062 -6.1875 L 3.769531 -6.378906 L 3.695312 -6.570312 L 3.390625 -6.65625 L 2.179688 -6.664062 L 1.972656 -6.644531 L 1.390625 -6.65625 L 1.210938 -6.644531 L 0.839844 -6.664062 L 0.628906 -6.570312 L 0.523438 -6.371094 L 0.523438 -6.1875 L 0.503906 -6.027344 L 0.503906 -5.816406 L 0.523438 -5.628906 L 0.523438 -5.445312 L 0.617188 -5.265625 L 1.199219 -5.066406 L 1.324219 -4.894531 L 1.296875 -4.085938 L 1.304688 -3.921875 L 1.332031 -3.703125 L 1.324219 -3.3125 L 1.304688 -3.125 L 1.34375 -2.75 L 1.296875 -2.5625 L 1.332031 -2.152344 L 1.3125 -1.78125 L 1.21875 -1.570312 L 0.589844 -1.371094 L 0.476562 -1.191406 L 0.457031 -1.007812 Z M 0.457031 -0.277344 "/></g></g></g><g fill="#f4f4f4" fill-opacity="1"><g transform="translate(73.01055, 29.831378)"><g><path d="M 5.617188 -0.152344 L 5.894531 -0.0273438 L 6.140625 0.046875 L 6.359375 -0.0585938 L 6.445312 -0.257812 L 6.492188 -2.847656 L 6.457031 -3.113281 L 6.476562 -3.324219 L 6.4375 -4.464844 L 6.464844 -4.847656 L 6.445312 -5.027344 L 6.445312 -5.410156 L 6.484375 -5.597656 L 6.464844 -5.882812 L 6.484375 -6.378906 L 6.371094 -6.550781 L 6.160156 -6.644531 L 5.96875 -6.664062 L 5.789062 -6.664062 L 5.578125 -6.644531 L 5.378906 -6.675781 L 5.207031 -6.65625 L 5.019531 -6.664062 L 4.789062 -6.570312 L 4.695312 -6.371094 L 4.683594 -4.636719 L 4.722656 -4.4375 L 4.722656 -4.257812 L 4.683594 -4.054688 L 4.695312 -3.675781 L 4.648438 -3.523438 L 4.511719 -3.5625 L 4.09375 -3.988281 L 3.953125 -4.105469 L 3.617188 -4.445312 L 3.464844 -4.5625 L 3.359375 -4.695312 L 3.160156 -4.902344 L 2.867188 -5.152344 L 2.761719 -5.292969 L 2.582031 -5.417969 L 2.484375 -5.5625 L 2.324219 -5.675781 L 2.199219 -5.835938 L 1.683594 -6.359375 L 1.304688 -6.617188 L 1.046875 -6.695312 L 0.820312 -6.578125 L 0.695312 -6.398438 L 0.714844 -5.066406 L 0.695312 -4.875 L 0.722656 -4.484375 L 0.703125 -4.3125 L 0.714844 -4.113281 L 0.6875 -3.914062 L 0.722656 -2.550781 L 0.703125 -2.378906 L 0.703125 -2.199219 L 0.6875 -1.988281 L 0.6875 -1.808594 L 0.714844 -1.609375 L 0.703125 -1.21875 L 0.722656 -1.027344 L 0.695312 -0.667969 L 0.722656 -0.476562 L 0.722656 -0.296875 L 0.808594 -0.0859375 L 0.992188 0.0195312 L 1.3125 0 L 1.789062 0.0273438 L 1.988281 0 L 2.210938 0.0195312 L 2.398438 -0.078125 L 2.484375 -0.265625 L 2.457031 -0.457031 L 2.484375 -2.789062 L 2.445312 -2.988281 L 2.542969 -3.105469 L 2.667969 -3.074219 L 4.027344 -1.742188 L 4.179688 -1.617188 L 5.105469 -0.695312 L 5.226562 -0.542969 L 5.378906 -0.417969 L 5.496094 -0.277344 Z M 5.617188 -0.152344 "/></g></g></g><g fill="#f4f4f4" fill-opacity="1"><g transform="translate(80.185138, 29.831378)"><g/></g></g><g fill="#f4f4f4" fill-opacity="1"><g transform="translate(82.763799, 29.831378)"><g><path d="M 3.191406 0.0390625 L 3.570312 0.0195312 L 3.742188 -0.078125 L 3.835938 -0.257812 L 3.835938 -1.199219 L 3.722656 -1.378906 L 3.511719 -1.484375 L 3.3125 -1.484375 L 3.085938 -1.5625 L 2.972656 -1.78125 L 3 -1.960938 L 2.988281 -3.007812 L 3.007812 -3.21875 L 2.972656 -3.902344 L 3.007812 -4.867188 L 3.074219 -5.085938 L 3.285156 -5.171875 L 3.476562 -5.199219 L 3.675781 -5.273438 L 3.769531 -5.425781 L 3.78125 -6.371094 L 3.664062 -6.550781 L 3.496094 -6.65625 L 2.34375 -6.65625 L 2.171875 -6.675781 L 1.980469 -6.636719 L 1.199219 -6.636719 L 1.019531 -6.664062 L 0.800781 -6.664062 L 0.609375 -6.570312 L 0.515625 -6.339844 L 0.542969 -5.636719 L 0.523438 -5.457031 L 0.628906 -5.265625 L 0.839844 -5.160156 L 1.027344 -5.160156 L 1.210938 -5.046875 L 1.296875 -4.789062 L 1.324219 -1.867188 L 1.21875 -1.582031 L 0.589844 -1.390625 L 0.484375 -1.21875 L 0.457031 -0.34375 L 0.550781 -0.0859375 L 0.742188 0 L 0.921875 0 L 1.105469 -0.0195312 L 1.378906 0.0195312 L 1.675781 0.0078125 L 1.867188 -0.0078125 L 2.246094 0.0273438 L 2.53125 -0.0078125 L 3 -0.0078125 Z M 3.191406 0.0390625 "/></g></g></g><g fill="#f4f4f4" fill-opacity="1"><g transform="translate(87.083781, 29.831378)"><g><path d="M 5.617188 -0.152344 L 5.894531 -0.0273438 L 6.140625 0.046875 L 6.359375 -0.0585938 L 6.445312 -0.257812 L 6.492188 -2.847656 L 6.457031 -3.113281 L 6.476562 -3.324219 L 6.4375 -4.464844 L 6.464844 -4.847656 L 6.445312 -5.027344 L 6.445312 -5.410156 L 6.484375 -5.597656 L 6.464844 -5.882812 L 6.484375 -6.378906 L 6.371094 -6.550781 L 6.160156 -6.644531 L 5.96875 -6.664062 L 5.789062 -6.664062 L 5.578125 -6.644531 L 5.378906 -6.675781 L 5.207031 -6.65625 L 5.019531 -6.664062 L 4.789062 -6.570312 L 4.695312 -6.371094 L 4.683594 -4.636719 L 4.722656 -4.4375 L 4.722656 -4.257812 L 4.683594 -4.054688 L 4.695312 -3.675781 L 4.648438 -3.523438 L 4.511719 -3.5625 L 4.09375 -3.988281 L 3.953125 -4.105469 L 3.617188 -4.445312 L 3.464844 -4.5625 L 3.359375 -4.695312 L 3.160156 -4.902344 L 2.867188 -5.152344 L 2.761719 -5.292969 L 2.582031 -5.417969 L 2.484375 -5.5625 L 2.324219 -5.675781 L 2.199219 -5.835938 L 1.683594 -6.359375 L 1.304688 -6.617188 L 1.046875 -6.695312 L 0.820312 -6.578125 L 0.695312 -6.398438 L 0.714844 -5.066406 L 0.695312 -4.875 L 0.722656 -4.484375 L 0.703125 -4.3125 L 0.714844 -4.113281 L 0.6875 -3.914062 L 0.722656 -2.550781 L 0.703125 -2.378906 L 0.703125 -2.199219 L 0.6875 -1.988281 L 0.6875 -1.808594 L 0.714844 -1.609375 L 0.703125 -1.21875 L 0.722656 -1.027344 L 0.695312 -0.667969 L 0.722656 -0.476562 L 0.722656 -0.296875 L 0.808594 -0.0859375 L 0.992188 0.0195312 L 1.3125 0 L 1.789062 0.0273438 L 1.988281 0 L 2.210938 0.0195312 L 2.398438 -0.078125 L 2.484375 -0.265625 L 2.457031 -0.457031 L 2.484375 -2.789062 L 2.445312 -2.988281 L 2.542969 -3.105469 L 2.667969 -3.074219 L 4.027344 -1.742188 L 4.179688 -1.617188 L 5.105469 -0.695312 L 5.226562 -0.542969 L 5.378906 -0.417969 L 5.496094 -0.277344 Z M 5.617188 -0.152344 "/></g></g></g><g fill="#f4f4f4" fill-opacity="1"><g transform="translate(94.258369, 29.831378)"><g><path d="M 0.714844 -0.296875 L 0.828125 -0.0859375 L 0.980469 0 L 1.199219 0 L 1.398438 0.0273438 L 1.589844 0.0273438 L 1.789062 0 L 3.503906 -0.0078125 L 4.113281 -0.09375 L 4.664062 -0.265625 L 5.476562 -0.808594 L 5.855469 -1.246094 L 6.152344 -1.722656 L 6.199219 -1.90625 L 6.292969 -2.085938 L 6.332031 -2.277344 L 6.398438 -2.445312 L 6.425781 -2.648438 L 6.476562 -2.847656 L 6.464844 -3.007812 L 6.503906 -3.617188 L 6.359375 -4.160156 L 6.339844 -4.359375 L 6.292969 -4.53125 L 6.152344 -4.914062 L 5.933594 -5.238281 L 5.855469 -5.398438 L 5.609375 -5.695312 L 5.445312 -5.816406 L 5.179688 -6.074219 L 4.828125 -6.292969 L 4.636719 -6.390625 L 4.113281 -6.5625 L 3.722656 -6.636719 L 2.371094 -6.644531 L 2.179688 -6.664062 L 1.570312 -6.644531 L 1.378906 -6.664062 L 1.210938 -6.65625 L 1.007812 -6.664062 L 0.839844 -6.5625 L 0.695312 -6.378906 L 0.695312 -5.988281 L 0.714844 -5.800781 L 0.703125 -5.609375 L 0.722656 -5.246094 L 0.695312 -5.039062 L 0.722656 -4.847656 L 0.695312 -4.65625 L 0.734375 -3.894531 L 0.703125 -3.53125 L 0.734375 -3.125 L 0.703125 -2.941406 L 0.734375 -2.742188 L 0.703125 -2.371094 L 0.722656 -1.609375 L 0.703125 -1.417969 L 0.734375 -0.65625 Z M 2.734375 -1.53125 L 2.503906 -1.617188 L 2.417969 -1.828125 L 2.4375 -2.019531 L 2.398438 -2.191406 L 2.429688 -2.378906 L 2.429688 -4.828125 L 2.542969 -5 L 2.820312 -5.105469 L 3.019531 -5.09375 L 3.21875 -5.105469 L 3.503906 -5.085938 L 3.886719 -4.96875 L 4.207031 -4.761719 L 4.445312 -4.496094 L 4.550781 -4.3125 L 4.675781 -4.160156 L 4.789062 -3.597656 L 4.816406 -3.304688 L 4.769531 -2.835938 L 4.714844 -2.65625 L 4.570312 -2.3125 L 4.445312 -2.140625 L 4.324219 -2.007812 L 4.207031 -1.855469 L 4.054688 -1.761719 L 3.867188 -1.667969 L 3.523438 -1.570312 Z M 2.734375 -1.53125 "/></g></g></g><g fill="#f4f4f4" fill-opacity="1"><g transform="translate(101.17604, 29.831378)"><g><path d="M 2.808594 0.078125 L 3.265625 0.113281 L 3.742188 0.09375 L 4.121094 0.0078125 L 4.324219 -0.0664062 L 4.511719 -0.113281 L 4.664062 -0.210938 L 4.835938 -0.285156 L 4.988281 -0.390625 L 5.417969 -0.769531 L 5.523438 -0.941406 L 5.648438 -1.085938 L 5.703125 -1.277344 L 5.800781 -1.4375 L 5.867188 -1.617188 L 5.933594 -2.582031 L 5.902344 -3.351562 L 5.941406 -3.550781 L 5.941406 -3.722656 L 5.902344 -3.914062 L 5.894531 -4.09375 L 5.914062 -4.292969 L 5.902344 -4.5625 L 5.921875 -4.855469 L 5.914062 -5.066406 L 5.941406 -5.246094 L 5.914062 -5.4375 L 5.921875 -6.207031 L 5.894531 -6.371094 L 5.816406 -6.578125 L 5.511719 -6.664062 L 4.617188 -6.675781 L 4.410156 -6.589844 L 4.3125 -6.378906 L 4.324219 -5.445312 L 4.304688 -5.257812 L 4.3125 -4.886719 L 4.292969 -4.683594 L 4.324219 -4.484375 L 4.292969 -3.734375 L 4.332031 -3.5625 L 4.3125 -3.351562 L 4.324219 -3.007812 L 4.304688 -2.820312 L 4.3125 -2.332031 L 4.273438 -2.027344 L 4.191406 -1.847656 L 4.105469 -1.714844 L 3.953125 -1.570312 L 3.570312 -1.449219 L 3.3125 -1.429688 L 3 -1.449219 L 2.828125 -1.496094 L 2.617188 -1.601562 L 2.476562 -1.722656 L 2.363281 -1.855469 L 2.304688 -2.058594 L 2.285156 -3.734375 L 2.257812 -3.921875 L 2.246094 -4.511719 L 2.265625 -4.683594 L 2.265625 -5.445312 L 2.238281 -5.722656 L 2.238281 -5.902344 L 2.285156 -6.1875 L 2.285156 -6.390625 L 2.179688 -6.570312 L 1.953125 -6.65625 L 0.953125 -6.664062 L 0.761719 -6.5625 L 0.675781 -6.371094 L 0.675781 -5.800781 L 0.628906 -5.636719 L 0.667969 -5.238281 L 0.636719 -4.875 L 0.6875 -4.304688 L 0.648438 -4.121094 L 0.675781 -3.914062 L 0.65625 -3.734375 L 0.667969 -3.542969 L 0.648438 -3.359375 L 0.675781 -2.980469 L 0.667969 -2.292969 L 0.695312 -2.019531 L 0.695312 -1.820312 L 0.753906 -1.628906 L 0.78125 -1.449219 L 0.839844 -1.265625 L 1.027344 -0.941406 L 1.285156 -0.628906 L 1.410156 -0.503906 L 1.734375 -0.3125 L 1.875 -0.199219 L 2.058594 -0.125 L 2.277344 -0.0585938 L 2.417969 0.0195312 L 2.628906 0.0273438 Z M 2.808594 0.078125 "/></g></g></g><g fill="#f4f4f4" fill-opacity="1"><g transform="translate(107.741644, 29.831378)"><g><path d="M 2.761719 0.078125 L 3.039062 0.105469 L 3.34375 0.09375 L 4.273438 -0.0859375 L 4.769531 -0.351562 L 5.074219 -0.5625 L 5.34375 -0.867188 L 5.53125 -1.171875 L 5.609375 -1.34375 L 5.664062 -1.53125 L 5.695312 -1.703125 L 5.703125 -2.292969 L 5.675781 -2.484375 L 5.628906 -2.667969 L 5.4375 -3.019531 L 5.207031 -3.3125 L 5.046875 -3.445312 L 4.542969 -3.675781 L 3.761719 -3.867188 L 2.800781 -3.988281 L 2.398438 -4.132812 L 2.257812 -4.207031 L 2.105469 -4.359375 L 2.09375 -4.617188 L 2.125 -4.867188 L 2.226562 -5 L 2.390625 -5.121094 L 2.523438 -5.179688 L 2.695312 -5.21875 L 3.304688 -5.238281 L 3.511719 -5.160156 L 3.65625 -5.046875 L 3.96875 -4.714844 L 4.265625 -4.617188 L 4.894531 -4.597656 L 5.066406 -4.617188 L 5.246094 -4.597656 L 5.425781 -4.714844 L 5.511719 -4.894531 L 5.4375 -5.265625 L 5.285156 -5.609375 L 5.160156 -5.761719 L 5.066406 -5.914062 L 4.941406 -6.054688 L 4.332031 -6.476562 L 3.808594 -6.65625 L 3.609375 -6.695312 L 3.4375 -6.714844 L 3.226562 -6.761719 L 2.695312 -6.75 L 1.941406 -6.597656 L 1.769531 -6.53125 L 1.617188 -6.4375 L 1.464844 -6.378906 L 1.277344 -6.265625 L 1.144531 -6.140625 L 0.972656 -6.027344 L 0.867188 -5.867188 L 0.742188 -5.742188 L 0.675781 -5.570312 L 0.582031 -5.417969 L 0.449219 -4.867188 L 0.457031 -4.226562 L 0.523438 -3.960938 L 0.648438 -3.628906 L 0.886719 -3.3125 L 1.152344 -3.066406 L 1.484375 -2.867188 L 2.027344 -2.683594 L 2.371094 -2.609375 L 3.152344 -2.550781 L 3.324219 -2.523438 L 3.511719 -2.515625 L 3.855469 -2.371094 L 3.988281 -2.257812 L 4.039062 -2.007812 L 3.980469 -1.761719 L 3.828125 -1.628906 L 3.675781 -1.542969 L 3.324219 -1.4375 L 3.054688 -1.429688 L 2.769531 -1.449219 L 2.550781 -1.503906 L 2.410156 -1.570312 L 2.238281 -1.675781 L 2.09375 -1.808594 L 1.953125 -2 L 1.761719 -2.074219 L 1.039062 -2.09375 L 0.847656 -2.074219 L 0.65625 -2.085938 L 0.464844 -2 L 0.398438 -1.800781 L 0.417969 -1.589844 L 0.457031 -1.417969 L 0.609375 -1.039062 L 0.847656 -0.742188 L 1.125 -0.464844 L 1.285156 -0.363281 L 1.972656 -0.046875 L 2.179688 -0.0195312 L 2.363281 0.046875 Z M 2.761719 0.078125 "/></g></g></g><g fill="#f4f4f4" fill-opacity="1"><g transform="translate(113.812455, 29.831378)"><g><path d="M 1.828125 -0.296875 L 1.90625 -0.09375 L 2.105469 0 L 2.285156 -0.0195312 L 2.476562 0 L 2.65625 -0.0195312 L 3.246094 -0.0195312 L 3.4375 -0.09375 L 3.511719 -0.285156 L 3.503906 -0.464844 L 3.523438 -0.6875 L 3.511719 -1.066406 L 3.484375 -1.226562 L 3.511719 -1.429688 L 3.53125 -2.007812 L 3.511719 -2.179688 L 3.542969 -2.582031 L 3.503906 -4.476562 L 3.53125 -4.664062 L 3.511719 -4.875 L 3.589844 -5.046875 L 3.800781 -5.132812 L 3.960938 -5.140625 L 4.152344 -5.132812 L 4.324219 -5.152344 L 4.847656 -5.140625 L 5.066406 -5.226562 L 5.160156 -5.417969 L 5.140625 -5.617188 L 5.160156 -6.398438 L 5.066406 -6.589844 L 4.875 -6.683594 L 4.648438 -6.664062 L 4.496094 -6.683594 L 4.3125 -6.683594 L 4.105469 -6.65625 L 3.914062 -6.65625 L 3.722656 -6.675781 L 3.53125 -6.675781 L 3.3125 -6.644531 L 0.476562 -6.664062 L 0.265625 -6.570312 L 0.171875 -6.378906 L 0.160156 -5.425781 L 0.265625 -5.21875 L 0.457031 -5.121094 L 0.703125 -5.152344 L 1.550781 -5.140625 L 1.722656 -5.039062 L 1.820312 -4.855469 L 1.847656 -3.808594 L 1.820312 -3.511719 L 1.835938 -3.332031 L 1.820312 -3.140625 L 1.820312 -2.761719 L 1.847656 -2.484375 L 1.808594 -2.199219 L 1.820312 -2.007812 L 1.808594 -1.808594 L 1.835938 -1.226562 L 1.820312 -1.039062 Z M 1.828125 -0.296875 "/></g></g></g><g fill="#f4f4f4" fill-opacity="1"><g transform="translate(119.131543, 29.831378)"><g><path d="M 0.734375 -0.304688 L 0.800781 -0.09375 L 0.992188 0 L 1.171875 0.0078125 L 1.5625 -0.0195312 L 1.761719 0 L 2.046875 0 L 2.34375 -0.09375 L 2.410156 -0.277344 L 2.429688 -0.476562 L 2.390625 -0.675781 L 2.417969 -1.085938 L 2.398438 -1.675781 L 2.484375 -1.867188 L 2.675781 -1.960938 L 2.847656 -1.960938 L 3.019531 -1.972656 L 3.257812 -1.894531 L 3.410156 -1.734375 L 3.65625 -1.398438 L 3.722656 -1.21875 L 3.988281 -0.742188 L 4.113281 -0.5625 L 4.199219 -0.398438 L 4.3125 -0.246094 L 4.503906 -0.078125 L 4.742188 -0.0195312 L 5.085938 0 L 5.292969 -0.0195312 L 5.484375 0 L 5.867188 0 L 6.074219 -0.0195312 L 6.273438 -0.0664062 L 6.3125 -0.265625 L 6.1875 -0.503906 L 5.882812 -0.972656 L 5.800781 -1.132812 L 5.683594 -1.304688 L 5.589844 -1.476562 L 5.464844 -1.628906 L 5.179688 -2.125 L 5.152344 -2.351562 L 5.257812 -2.550781 L 5.523438 -2.808594 L 5.636719 -2.972656 L 5.703125 -3.152344 L 5.808594 -3.324219 L 5.875 -3.484375 L 5.980469 -3.847656 L 5.988281 -4.597656 L 5.941406 -4.78125 L 5.914062 -4.960938 L 5.867188 -5.152344 L 5.609375 -5.675781 L 5.476562 -5.816406 L 5.390625 -5.960938 L 4.914062 -6.324219 L 4.578125 -6.492188 L 3.789062 -6.65625 L 3.550781 -6.675781 L 3.277344 -6.664062 L 3.066406 -6.675781 L 2.875 -6.65625 L 2.667969 -6.675781 L 2.503906 -6.65625 L 1.933594 -6.675781 L 1.753906 -6.644531 L 1.363281 -6.683594 L 1.179688 -6.65625 L 0.972656 -6.664062 L 0.789062 -6.578125 L 0.714844 -6.378906 L 0.6875 -3.714844 L 0.714844 -3.4375 L 0.714844 -2.960938 L 0.695312 -2.761719 L 0.6875 -2.398438 L 0.714844 -2.191406 L 0.6875 -1.800781 L 0.722656 -1.246094 L 0.703125 -1.046875 Z M 2.675781 -3.503906 L 2.515625 -3.589844 L 2.417969 -3.789062 L 2.390625 -4.855469 L 2.503906 -5.046875 L 2.695312 -5.140625 L 2.847656 -5.152344 L 3.371094 -5.140625 L 3.808594 -5.085938 L 4.105469 -4.902344 L 4.199219 -4.761719 L 4.265625 -4.609375 L 4.285156 -4.332031 L 4.257812 -4.074219 L 4.179688 -3.886719 L 4.074219 -3.722656 L 3.960938 -3.609375 L 3.816406 -3.542969 L 3.074219 -3.476562 L 2.886719 -3.503906 Z M 2.675781 -3.503906 "/></g></g></g><g fill="#f4f4f4" fill-opacity="1"><g transform="translate(125.725695, 29.831378)"><g><path d="M 2.191406 -0.265625 L 2.292969 -0.105469 L 2.476562 -0.0078125 L 2.820312 0.0078125 L 3.007812 -0.0078125 L 3.207031 0 L 3.476562 -0.0078125 L 3.761719 -0.105469 L 3.855469 -0.296875 L 3.855469 -0.457031 L 3.835938 -0.65625 L 3.847656 -0.839844 L 3.835938 -1.007812 L 3.886719 -1.589844 L 3.855469 -1.789062 L 3.886719 -2.34375 L 3.847656 -2.515625 L 3.894531 -2.789062 L 4.226562 -3.371094 L 4.304688 -3.550781 L 4.410156 -3.714844 L 4.648438 -4.027344 L 5.742188 -5.835938 L 5.855469 -5.980469 L 5.921875 -6.152344 L 6.054688 -6.378906 L 6.027344 -6.609375 L 5.847656 -6.683594 L 5.65625 -6.65625 L 5.285156 -6.683594 L 5.085938 -6.65625 L 4.722656 -6.65625 L 4.542969 -6.675781 L 4.304688 -6.578125 L 4.105469 -6.398438 L 3.941406 -6.074219 L 3.816406 -5.894531 L 3.761719 -5.714844 L 3.542969 -5.398438 L 3.398438 -5.054688 L 3.085938 -4.542969 L 2.953125 -4.523438 L 2.734375 -4.867188 L 2.648438 -5.039062 L 2.589844 -5.226562 L 2.113281 -6.066406 L 2.007812 -6.226562 L 1.933594 -6.417969 L 1.722656 -6.570312 L 1.484375 -6.675781 L 0.230469 -6.65625 L 0.0195312 -6.597656 L 0 -6.390625 L 0.09375 -6.160156 L 1.125 -4.53125 L 1.199219 -4.371094 L 2.046875 -3.039062 L 2.125 -2.789062 L 2.171875 -2.515625 L 2.160156 -1.761719 L 2.179688 -1.570312 L 2.191406 -1.390625 L 2.171875 -1.21875 L 2.160156 -0.855469 L 2.210938 -0.464844 Z M 2.191406 -0.265625 "/></g></g></g></svg>