<svg xmlns="http://www.w3.org/2000/svg" xmlns:xlink="http://www.w3.org/1999/xlink" width="180" zoomAndPan="magnify" viewBox="0 0 135 33.749998" height="45" preserveAspectRatio="xMidYMid meet" version="1.0"><defs><g/></defs><g fill="#d9d9d9" fill-opacity="1"><g transform="translate(38.126336, 21.442278)"><g><path d="M 10.539062 -8.113281 C 10.539062 -10.429688 8.917969 -11.734375 5.984375 -11.734375 C 2.820312 -11.734375 1.164062 -10.429688 1.164062 -8.285156 C 1.164062 -6.554688 2.238281 -5.65625 4.472656 -5.261719 L 7.292969 -4.757812 C 8.648438 -4.519531 9.261719 -4.082031 9.261719 -3.136719 C 9.261719 -1.9375 8.160156 -1.195312 6.097656 -1.195312 C 3.734375 -1.195312 2.566406 -2.0625 2.503906 -3.859375 L 0.789062 -3.859375 C 0.789062 -1.117188 2.582031 0.300781 6.003906 0.300781 C 9.214844 0.300781 10.964844 -1.070312 10.964844 -3.277344 C 10.964844 -5.199219 9.8125 -5.921875 7.402344 -6.378906 L 4.898438 -6.867188 C 3.511719 -7.136719 2.867188 -7.5 2.867188 -8.429688 C 2.867188 -9.578125 3.875 -10.238281 5.859375 -10.238281 C 7.84375 -10.238281 8.820312 -9.578125 8.933594 -8.113281 Z M 10.539062 -8.113281 "/></g></g></g><g fill="#d9d9d9" fill-opacity="1"><g transform="translate(49.86051, 21.442278)"><g><path d="M -0.03125 -8.476562 L 3.8125 0 C 3.464844 1.195312 3.007812 1.589844 1.90625 1.589844 C 1.6875 1.589844 1.402344 1.558594 1.007812 1.496094 L 1.007812 2.945312 C 1.480469 2.992188 1.828125 3.007812 2.0625 3.007812 C 4.160156 3.007812 4.503906 2.238281 5.53125 -0.0625 L 9.277344 -8.476562 L 7.5 -8.476562 L 4.679688 -1.339844 L 1.796875 -8.476562 Z M -0.03125 -8.476562 "/></g></g></g><g fill="#d9d9d9" fill-opacity="1"><g transform="translate(59.106095, 21.442278)"><g><path d="M 8.648438 -5.921875 C 8.648438 -7.75 7.324219 -8.742188 4.789062 -8.742188 C 2.269531 -8.742188 0.976562 -7.796875 0.976562 -6.050781 C 0.976562 -4.488281 1.96875 -4.046875 3.953125 -3.71875 L 5.84375 -3.386719 C 6.914062 -3.214844 7.386719 -2.992188 7.386719 -2.332031 C 7.386719 -1.558594 6.476562 -1.054688 4.742188 -1.054688 C 3.277344 -1.054688 2.394531 -1.667969 2.253906 -2.757812 L 0.582031 -2.757812 C 0.773438 -0.675781 2.109375 0.234375 4.742188 0.234375 C 7.515625 0.234375 8.917969 -0.691406 8.917969 -2.410156 C 8.917969 -3.9375 8.144531 -4.503906 6.253906 -4.820312 L 4.425781 -5.121094 C 3.136719 -5.339844 2.503906 -5.496094 2.503906 -6.316406 C 2.503906 -7.042969 3.277344 -7.453125 4.710938 -7.453125 C 6.238281 -7.453125 7.058594 -6.980469 7.167969 -5.921875 Z M 8.648438 -5.921875 "/></g></g></g><g fill="#d9d9d9" fill-opacity="1"><g transform="translate(68.603689, 21.442278)"><g><path d="M 1.84375 -10.632812 L 1.84375 -8.476562 L 0.363281 -8.476562 L 0.363281 -7.183594 L 1.84375 -7.183594 L 1.84375 -1.71875 C 1.84375 -0.394531 2.535156 0.234375 4.03125 0.234375 C 4.457031 0.234375 4.929688 0.171875 5.449219 0.09375 L 5.449219 -1.308594 C 5.042969 -1.214844 4.710938 -1.179688 4.410156 -1.179688 C 3.65625 -1.179688 3.371094 -1.449219 3.371094 -2.160156 L 3.371094 -7.183594 L 5.449219 -7.183594 L 5.449219 -8.476562 L 3.371094 -8.476562 L 3.371094 -10.632812 Z M 1.84375 -10.632812 "/></g></g></g><g fill="#d9d9d9" fill-opacity="1"><g transform="translate(74.336893, 21.442278)"><g><path d="M 9.847656 -3.921875 L 9.847656 -4.222656 C 9.847656 -7.042969 8.128906 -8.742188 5.230469 -8.742188 C 2.394531 -8.742188 0.582031 -6.964844 0.582031 -4.222656 C 0.582031 -1.496094 2.378906 0.234375 5.230469 0.234375 C 7.484375 0.234375 9.105469 -0.804688 9.703125 -2.628906 L 7.925781 -2.628906 C 7.578125 -1.703125 6.570312 -1.179688 5.230469 -1.179688 C 3.417969 -1.179688 2.207031 -2.269531 2.207031 -3.921875 Z M 2.238281 -5.007812 C 2.488281 -6.457031 3.609375 -7.324219 5.230469 -7.324219 C 6.867188 -7.324219 7.972656 -6.441406 8.207031 -5.007812 Z M 2.238281 -5.007812 "/></g></g></g><g fill="#d9d9d9" fill-opacity="1"><g transform="translate(84.763764, 21.442278)"><g><path d="M 2.664062 -8.476562 L 1.132812 -8.476562 L 1.132812 0 L 2.664062 0 L 2.664062 -4.300781 C 2.664062 -6.191406 4 -7.453125 5.796875 -7.453125 C 7.324219 -7.453125 7.828125 -6.632812 7.828125 -4.914062 L 7.828125 0 L 9.308594 0 L 9.308594 -4.300781 C 9.308594 -6.191406 10.648438 -7.453125 12.445312 -7.453125 C 13.972656 -7.453125 14.476562 -6.632812 14.476562 -4.914062 L 14.476562 0 L 16.003906 0 L 16.003906 -4.851562 C 16.003906 -7.246094 15.34375 -8.742188 12.777344 -8.742188 C 11.28125 -8.742188 10.175781 -8.113281 9.167969 -6.867188 C 8.820312 -8.019531 7.75 -8.742188 6.160156 -8.742188 C 4.648438 -8.742188 3.527344 -8.066406 2.664062 -7.011719 Z M 2.664062 -8.476562 "/></g></g></g><g fill="#d9d9d9" fill-opacity="1"><g transform="translate(101.900374, 21.442278)"><g><path d="M 8.648438 -5.921875 C 8.648438 -7.75 7.324219 -8.742188 4.789062 -8.742188 C 2.269531 -8.742188 0.976562 -7.796875 0.976562 -6.050781 C 0.976562 -4.488281 1.96875 -4.046875 3.953125 -3.71875 L 5.84375 -3.386719 C 6.914062 -3.214844 7.386719 -2.992188 7.386719 -2.332031 C 7.386719 -1.558594 6.476562 -1.054688 4.742188 -1.054688 C 3.277344 -1.054688 2.394531 -1.667969 2.253906 -2.757812 L 0.582031 -2.757812 C 0.773438 -0.675781 2.109375 0.234375 4.742188 0.234375 C 7.515625 0.234375 8.917969 -0.691406 8.917969 -2.410156 C 8.917969 -3.9375 8.144531 -4.503906 6.253906 -4.820312 L 4.425781 -5.121094 C 3.136719 -5.339844 2.503906 -5.496094 2.503906 -6.316406 C 2.503906 -7.042969 3.277344 -7.453125 4.710938 -7.453125 C 6.238281 -7.453125 7.058594 -6.980469 7.167969 -5.921875 Z M 8.648438 -5.921875 "/></g></g></g><g fill="#0eb4c7" fill-opacity="1"><g transform="translate(22.1986, 22.358621)"><g><path d="M 0.859375 -11.347656 C 1.515625 -9.832031 -1.570312 -3.515625 -1.542969 -1.65625 C -1.515625 -1.058594 -1.230469 -0.515625 -0.398438 -0.199219 C 0.914062 0.3125 3.316406 -0.371094 3.171875 -0.6875 C 2.828125 -1.914062 3.257812 -3.917969 3.859375 -5.945312 C 4.289062 -7.375 4.917969 -8.777344 5.03125 -9.433594 C 5.972656 -12.636719 0.515625 -12.464844 0.859375 -11.347656 Z M 4.574219 -17.125 C 3.144531 -17.265625 1.859375 -16.550781 1.65625 -15.464844 C 1.515625 -14.378906 2.542969 -13.265625 3.945312 -13.0625 C 5.34375 -12.835938 6.632812 -13.605469 6.804688 -14.722656 C 6.945312 -15.78125 5.972656 -16.835938 4.574219 -17.125 Z M 4.574219 -17.125 "/></g></g></g><g fill="#0eb4c7" fill-opacity="1"><g transform="translate(29.059434, 22.358621)"><g><path d="M 0.859375 -11.347656 C 1.515625 -9.832031 -1.570312 -3.515625 -1.542969 -1.65625 C -1.515625 -1.058594 -1.230469 -0.515625 -0.398438 -0.199219 C 0.914062 0.3125 3.316406 -0.371094 3.171875 -0.6875 C 2.828125 -1.914062 3.257812 -3.917969 3.859375 -5.945312 C 4.289062 -7.375 4.917969 -8.777344 5.03125 -9.433594 C 5.972656 -12.636719 0.515625 -12.464844 0.859375 -11.347656 Z M 4.574219 -17.125 C 3.144531 -17.265625 1.859375 -16.550781 1.65625 -15.464844 C 1.515625 -14.378906 2.542969 -13.265625 3.945312 -13.0625 C 5.34375 -12.835938 6.632812 -13.605469 6.804688 -14.722656 C 6.945312 -15.78125 5.972656 -16.835938 4.574219 -17.125 Z M 4.574219 -17.125 "/></g></g></g></svg>